<svg width="57" height="86" viewBox="0 0 57 86" fill="none" xmlns="http://www.w3.org/2000/svg">
<path d="M45.6039 0L35.8954 26.867H30.501L40.1811 0.0218664V0H45.6039Z" fill="#9871F3"/>
<path d="M40.1806 0.00012207V0.0219885L30.5005 26.8671H25.1738L34.854 0.0219885V0.00012207H40.1806Z" fill="#F0F0F0"/>
<path d="M34.8543 0V0.0218664L25.1742 26.867H19.7324L29.4409 0H34.8543Z" fill="#6F9DE2"/>
<path d="M39.688 27.267C40.4009 28.8427 40.7969 30.5387 40.86 32.2596C37.0444 30.3277 32.7209 29.2381 28.1419 29.2381C23.3074 29.2381 18.7599 30.4527 14.793 32.5879C14.8135 30.7543 15.2157 28.9427 15.9729 27.267L16.3262 26.487C16.7205 25.6132 17.5408 25.002 18.4982 24.8692L19.5408 24.7238C25.0394 23.961 30.6215 23.961 36.1217 24.7238L37.1627 24.8692C38.1202 25.0021 38.9404 25.6132 39.3348 26.487L39.688 27.267ZM36.8819 28.0345V27.0091C36.8819 26.7121 36.639 26.4714 36.3394 26.4714H19.3215C19.0218 26.4714 18.7789 26.7121 18.7789 27.0091V28.0345C18.7789 28.333 19.0218 28.5738 19.3215 28.5738H36.3394C36.639 28.5738 36.8819 28.3331 36.8819 28.0345Z" fill="#C9C9C9"/>
<path d="M10.0225 0L19.7309 26.867H25.1254L15.4454 0.0218664V0H10.0225Z" fill="#6F9DE2"/>
<path d="M15.4453 0V0.0218664L25.1253 26.867H30.452L20.7718 0.0218664V0H15.4453Z" fill="#F0F0F0"/>
<path d="M20.7715 0V0.0218664L30.4516 26.867H35.8934L26.185 0H20.7715Z" fill="#9871F3"/>
<path d="M41.0502 32.2597C50.1215 36.849 56.333 46.198 56.333 56.9851C56.333 72.3099 43.7964 84.7337 28.3323 84.7337C12.8681 84.7337 0.333008 72.31 0.333008 56.9851C0.333008 46.4512 6.25592 37.2882 14.9832 32.5879C18.9503 30.4527 23.4977 29.2382 28.3322 29.2382C32.9112 29.2382 37.2347 30.3276 41.0502 32.2597Z" fill="#B8B8B8"/>
<path d="M28.3322 82.5222C21.4491 82.5222 14.9783 79.8659 10.1115 75.0425C5.2447 70.2192 2.56445 63.8062 2.56445 56.9851C2.56445 47.6144 7.73106 39.0108 16.0479 34.5316C19.7939 32.5153 24.0418 31.4495 28.3322 31.4495C32.455 31.4495 36.3927 32.3848 40.0358 34.2295C44.2022 36.3373 47.7168 39.5324 50.2004 43.4695C52.7525 47.5154 54.1015 52.189 54.1015 56.9852C54.1015 63.8062 51.4209 70.2191 46.5537 75.0426C41.6865 79.8659 35.2153 82.5222 28.3322 82.5222Z" fill="#C9C9C9"/>
<path d="M23.7575 32.7095C23.7552 32.7112 23.7553 32.7129 23.7532 32.7145C23.6328 32.8215 21.9252 34.3778 21.2552 35.7318C20.5592 37.1342 18.3959 38.5401 18.3956 38.5405C18.3918 38.5408 18.4669 36.3934 19.3745 35.4084C20.4569 34.2198 23.6572 32.7533 23.7575 32.7095Z" fill="#929292"/>
<path d="M23.0614 33.8308C22.6749 34.7613 22.4506 35.5634 21.8894 36.5926C21.5622 37.1931 20.0075 38.2271 19.0679 38.4503C18.6923 38.589 18.3955 38.5407 18.3955 38.5407C18.3959 38.54 20.559 37.1343 21.2551 35.7318C21.925 34.3778 23.6324 32.8216 23.7532 32.7146C23.701 32.7835 23.2639 33.3456 23.0614 33.8308Z" fill="#E6E6E6"/>
<path d="M26.2959 37.1515C26.2931 37.1519 26.2917 37.1531 26.2889 37.1534C26.1197 37.1762 23.6895 37.523 22.1405 38.2527C20.5353 39.0101 17.8809 38.959 17.8809 38.959C17.8787 38.958 19.6549 37.2761 21.0734 36.9705C22.7773 36.5998 26.1886 37.1347 26.2959 37.1515Z" fill="#929292"/>
<path d="M24.9217 37.6891C23.9149 38.2366 23.1221 38.765 21.9064 39.2908C21.1973 39.5983 19.2685 39.5851 18.4269 39.2521C18.0503 39.1587 17.8809 38.9585 17.8809 38.9585C17.8809 38.9585 20.5354 39.01 22.1405 38.2526C23.6893 37.523 26.1197 37.1762 26.2889 37.1533C26.1979 37.1815 25.447 37.4041 24.9217 37.6891Z" fill="#E6E6E6"/>
<path d="M18.5251 35.7623C18.5234 35.7642 18.5235 35.7659 18.5217 35.7678C18.4211 35.8872 17.0111 37.6213 16.6064 39.031C16.184 40.4909 14.2981 42.1372 14.2983 42.1376C14.2944 42.1382 13.9418 40.0238 14.6571 38.9467C15.5063 37.6483 18.4322 35.8173 18.5251 35.7623Z" fill="#929292"/>
<path d="M18.0449 36.946C17.8388 37.9049 17.7711 38.7183 17.4109 39.7965C17.2004 40.4254 15.8484 41.6311 14.9528 41.9662C14.6042 42.1487 14.2979 42.1378 14.2979 42.1378C14.2975 42.1373 16.1837 40.491 16.606 39.0311C17.0104 37.6215 18.4207 35.8875 18.5213 35.7679C18.4823 35.8418 18.1531 36.4459 18.0449 36.946Z" fill="#E6E6E6"/>
<path d="M21.9311 39.8041C21.9286 39.8048 21.9271 39.8062 21.9245 39.8068C21.7597 39.8497 19.3943 40.4871 17.9876 41.3935C16.5309 42.3336 13.8658 42.6117 13.8652 42.6114C13.8625 42.611 15.3059 40.7421 16.6672 40.2674C18.3014 39.6932 21.8214 39.8002 21.9311 39.8041Z" fill="#929292"/>
<path d="M20.6602 40.4996C19.7596 41.1599 19.0697 41.7757 17.9576 42.4412C17.3094 42.8298 15.3785 43.0544 14.4701 42.8318C14.075 42.7868 13.8652 42.6114 13.8652 42.6114C13.8658 42.6117 16.5309 42.3336 17.9876 41.3936C19.3943 40.4871 21.7597 39.8498 21.9245 39.8068C21.8389 39.8455 21.1308 40.1555 20.6602 40.4996Z" fill="#E6E6E6"/>
<path d="M13.6353 39.6292C13.6341 39.6314 13.6348 39.6328 13.6337 39.6351C13.5694 39.7687 12.6991 41.7007 12.7312 43.1292C12.759 44.6089 11.4064 46.555 11.4076 46.5556C11.4042 46.5564 10.4021 44.5988 10.7775 43.4292C11.215 42.0202 13.5587 39.6995 13.6353 39.6292Z" fill="#929292"/>
<path d="M13.519 40.8539C13.6067 41.811 13.7871 42.6027 13.7605 43.7055C13.744 44.3489 12.7793 45.7675 12 46.2634C11.7127 46.5063 11.4072 46.5556 11.4072 46.5556C11.4064 46.555 12.7589 44.6089 12.731 43.1291C12.6987 41.7006 13.5692 39.7687 13.6335 39.635C13.6173 39.7132 13.474 40.3547 13.519 40.8539Z" fill="#E6E6E6"/>
<path d="M18.2278 42.838C18.2253 42.8392 18.2244 42.8407 18.222 42.8418C18.0721 42.9147 15.9276 43.9823 14.8171 45.1247C13.6672 46.3084 11.1279 47.0939 11.1279 47.0939C11.1239 47.0939 11.9695 45.0205 13.1698 44.3012C14.6083 43.4325 18.1187 42.8548 18.2278 42.838Z" fill="#929292"/>
<path d="M17.1831 43.7503C16.4937 44.5577 16.0003 45.2821 15.1077 46.136C14.5875 46.6345 12.7556 47.2242 11.792 47.1876C11.3888 47.2212 11.1278 47.094 11.1279 47.0939C11.1285 47.0939 13.6677 46.3085 14.8176 45.1247C15.928 43.9823 18.0726 42.9146 18.2225 42.8418C18.1494 42.8954 17.5435 43.3294 17.1831 43.7503Z" fill="#E6E6E6"/>
<path d="M10.1027 43.9565C10.1018 43.9588 10.1029 43.9602 10.102 43.9625C10.0585 44.1005 9.49367 46.0909 9.75558 47.4999C10.02 48.96 8.98053 51.0127 8.98185 51.0132C8.97883 51.0141 7.65943 49.1723 7.84624 47.9811C8.05652 46.547 10.0364 44.0332 10.1027 43.9565Z" fill="#929292"/>
<path d="M10.1811 45.1773C10.422 46.1144 10.7291 46.8799 10.8787 47.9729C10.965 48.6105 10.2265 50.1045 9.52719 50.6685C9.27883 50.9357 8.98145 51.0134 8.98145 51.0134C8.97982 51.0128 10.0194 48.96 9.75511 47.5001C9.49311 46.0909 10.0582 44.1006 10.1015 43.9626C10.0976 44.0412 10.0563 44.6883 10.1811 45.1773Z" fill="#E6E6E6"/>
<path d="M15.2158 46.6964C15.2134 46.6978 15.2131 46.6995 15.2106 46.7008C15.0718 46.7866 13.0926 48.0431 12.164 49.2774C11.2019 50.5563 8.78993 51.5721 8.78908 51.5725C8.78537 51.5726 9.29596 49.4418 10.3833 48.6176C11.6842 47.6228 15.1092 46.7231 15.2158 46.6964Z" fill="#929292"/>
<path d="M14.3132 47.6964C13.7506 48.5597 13.3723 49.3223 12.6156 50.2511C12.1747 50.793 10.4378 51.5481 9.46835 51.6028C9.07064 51.674 8.78906 51.5726 8.78906 51.5726C8.78984 51.5723 11.202 50.5564 12.164 49.2775C13.0924 48.0433 15.0717 46.7869 15.2106 46.7009C15.146 46.7605 14.6072 47.2464 14.3132 47.6964Z" fill="#E6E6E6"/>
<path d="M7.42741 48.6793C7.42749 48.6816 7.42849 48.6829 7.42826 48.6852C7.41998 48.826 7.36678 50.8507 7.98661 52.1827C8.62038 53.5636 8.12017 55.729 8.12234 55.7294C8.12041 55.7303 6.34174 54.1402 6.21988 52.951C6.05738 51.5205 7.37972 48.7639 7.42741 48.6793Z" fill="#929292"/>
<path d="M7.8166 49.8544C8.29413 50.7286 8.79312 51.4258 9.21963 52.4678C9.46706 53.0756 9.11836 54.6481 8.57293 55.3077C8.39641 55.6073 8.12258 55.7294 8.12258 55.7294C8.12026 55.7291 8.62077 53.5636 7.98685 52.1826C7.36694 50.8505 7.42021 48.826 7.4285 48.6852C7.44429 48.7624 7.56808 49.3982 7.8166 49.8544Z" fill="#E6E6E6"/>
<path d="M13.1887 50.5481C13.1867 50.5497 13.1867 50.5514 13.1846 50.5531C13.0685 50.6583 11.425 52.1907 10.8215 53.5395C10.195 54.9368 8.07619 56.3046 8.07572 56.3051C8.07185 56.3056 8.02735 54.1467 8.89291 53.1736C9.92485 52 13.0896 50.5902 13.1887 50.5481Z" fill="#929292"/>
<path d="M12.5463 51.6633C12.2074 52.5927 12.0259 53.3956 11.5146 54.4197C11.2163 55.0171 9.69554 56.0243 8.75333 56.2288C8.37962 56.3603 8.07504 56.3052 8.0752 56.3052C8.07543 56.3049 10.1944 54.937 10.821 53.5397C11.4243 52.1907 13.0679 50.6585 13.1841 50.5532C13.1352 50.6215 12.7239 51.1788 12.5463 51.6633Z" fill="#E6E6E6"/>
<path d="M5.90231 53.5476C5.90278 53.55 5.90425 53.551 5.90456 53.5533C5.93019 53.692 6.37335 55.6778 7.31254 56.8902C8.27658 58.1478 8.31436 60.3441 8.31738 60.3443C8.31622 60.3451 6.16988 59.0484 5.75552 57.9033C5.24083 56.527 5.87459 53.6371 5.90231 53.5476Z" fill="#929292"/>
<path d="M6.57528 54.6382C7.26161 55.4221 7.92557 56.0303 8.60114 56.9877C8.99382 57.5462 9.03385 59.1381 8.65836 59.8649C8.55771 60.1844 8.31817 60.3445 8.31817 60.3445C8.31515 60.3444 8.27721 58.148 7.31325 56.8904C6.37406 55.6781 5.9309 53.6921 5.90527 53.5535C5.93996 53.6264 6.21775 54.2291 6.57528 54.6382Z" fill="#E6E6E6"/>
<path d="M12.0596 54.5251C12.0581 54.5271 12.0583 54.5287 12.0567 54.5307C11.967 54.6505 10.7108 56.3918 10.4443 57.8019C10.165 59.2629 8.41364 60.915 8.4138 60.9156C8.41001 60.9163 7.8343 58.8065 8.45096 57.7266C9.1815 56.4252 11.9709 54.5806 12.0596 54.5251Z" fill="#929292"/>
<path d="M11.694 55.7114C11.5833 56.6712 11.5985 57.4845 11.343 58.5633C11.1939 59.1926 9.94103 60.4027 9.06339 60.7415C8.72723 60.9253 8.41406 60.9159 8.41406 60.9159C8.41383 60.9154 10.1652 59.2632 10.4447 57.8023C10.7113 56.3919 11.9673 54.651 12.0571 54.531C12.0249 54.605 11.7525 55.2108 11.694 55.7114Z" fill="#E6E6E6"/>
<path d="M5.83203 59.2174C5.83335 59.2195 5.83497 59.2203 5.83613 59.2224C5.90736 59.3504 7.00502 61.1706 8.32117 62.1501C9.67596 63.167 10.4495 65.2838 10.4529 65.2835C10.4526 65.2839 7.94399 64.4634 7.15546 63.4436C6.19157 62.2194 5.83389 59.3087 5.83203 59.2174Z" fill="#929292"/>
<path d="M6.85031 60.1298C7.77905 60.7447 8.62626 61.1961 9.60037 61.9831C10.1669 62.4425 10.7377 63.9726 10.6198 64.7513C10.6301 65.0807 10.453 65.2836 10.453 65.2836C10.4493 65.284 9.67553 63.1673 8.32098 62.1502C7.00483 61.1708 5.90724 59.3504 5.83594 59.2225C5.89431 59.2855 6.36635 59.8086 6.85031 60.1298Z" fill="#E6E6E6"/>
<path d="M12.1356 58.9078C12.1348 58.9101 12.1354 58.9114 12.1347 58.9137C12.0859 59.0477 11.4433 60.9806 11.6559 62.3972C11.8708 63.8652 10.7366 65.8163 10.738 65.8168C10.7347 65.8178 9.4678 63.8936 9.70293 62.7269C9.97173 61.322 12.0665 58.9791 12.1356 58.9078Z" fill="#929292"/>
<path d="M12.1723 60.1262C12.3824 61.075 12.6662 61.8578 12.7778 62.9524C12.842 63.5909 12.0372 65.0134 11.3055 65.5176C11.0434 65.763 10.7383 65.8169 10.7383 65.8169C10.737 65.8165 11.871 63.8651 11.6563 62.3973C11.4437 60.9806 12.0864 59.0477 12.1351 58.9138C12.1284 58.9918 12.0633 59.6313 12.1723 60.1262Z" fill="#E6E6E6"/>
<path d="M7.19922 64.0338C7.20061 64.0359 7.20225 64.0366 7.20372 64.0386C7.28524 64.1636 8.52845 65.9383 9.92435 66.8688C11.3617 67.8354 12.3023 69.9173 12.3055 69.9169C12.3054 69.9175 9.72748 69.1852 8.85696 68.1967C7.79421 67.0107 7.20812 64.1246 7.19922 64.0338Z" fill="#929292"/>
<path d="M8.2924 64.9073C9.27184 65.4878 10.1564 65.9082 11.1943 66.6589C11.7982 67.097 12.4891 68.6016 12.4318 69.3811C12.4675 69.7088 12.3059 69.9169 12.3059 69.9169C12.3024 69.9173 11.3623 67.8354 9.92473 66.8689C8.52876 65.9383 7.28547 64.1637 7.2041 64.0387C7.26728 64.0995 7.78181 64.6041 8.2924 64.9073Z" fill="#E6E6E6"/>
<path d="M13.4972 63.5103C13.4966 63.5124 13.4972 63.5139 13.4967 63.5161C13.4582 63.651 12.9629 65.598 13.2861 67.0015C13.6148 68.4564 12.6311 70.438 12.6323 70.4385C12.6291 70.4395 11.2095 68.5661 11.3541 67.3962C11.5138 65.988 13.4333 63.5835 13.4972 63.5103Z" fill="#929292"/>
<path d="M13.6273 64.7224C13.9114 65.6601 14.2563 66.4302 14.4529 67.5165C14.5667 68.1503 13.8706 69.5944 13.177 70.1212C12.9332 70.3746 12.6318 70.4385 12.6318 70.4385C12.6307 70.438 13.6145 68.4565 13.2857 67.0016C12.9623 65.598 13.4579 63.6511 13.4963 63.5161C13.4955 63.594 13.48 64.233 13.6273 64.7224Z" fill="#E6E6E6"/>
<path d="M9.94824 69.3159C9.95026 69.3177 9.95233 69.3178 9.95435 69.3196C10.0786 69.4215 11.9251 70.8571 13.5962 71.4508C15.3208 72.069 16.9843 73.8823 16.9879 73.8814C16.9885 73.8815 14.2766 73.7326 13.08 72.9684C11.6279 72.0535 9.98989 69.4006 9.94824 69.3159Z" fill="#929292"/>
<path d="M11.314 69.9161C12.4621 70.2599 13.4593 70.4713 14.7231 70.9697C15.4591 71.2606 16.6714 72.5666 16.9072 73.3347C17.0633 73.6444 16.9877 73.8814 16.9877 73.8814C16.9843 73.8822 15.3206 72.069 13.596 71.4508C11.9245 70.857 10.0785 69.4214 9.9541 69.3196C10.0369 69.364 10.7152 69.7363 11.314 69.9161Z" fill="#E6E6E6"/>
<path d="M14.376 74.0647C14.3785 74.0662 14.3801 74.0661 14.3828 74.0675C14.53 74.1506 16.6893 75.3126 18.4663 75.6716C20.3018 76.0464 22.368 77.6153 22.3711 77.6142C22.3711 77.6142 19.6936 77.8331 18.3374 77.2413C16.6953 76.534 14.4378 74.142 14.376 74.0647Z" fill="#929292"/>
<path d="M15.8594 74.4689C17.0661 74.6504 18.0921 74.7226 19.4481 75.0427C20.2381 75.2297 21.7404 76.356 22.1584 77.0843C22.3866 77.3695 22.3711 77.6143 22.3711 77.6143C22.3682 77.6153 20.3017 76.0463 18.4664 75.6716C16.6895 75.3126 14.5298 74.1505 14.3828 74.0675C14.475 74.1 15.23 74.3736 15.8594 74.4689Z" fill="#E6E6E6"/>
<path d="M15.7534 67.4232C15.7535 67.4255 15.755 67.4267 15.7551 67.429C15.767 67.5678 16.0095 69.5559 16.8351 70.8442C17.6823 72.1804 17.4879 74.316 17.4905 74.316C17.4889 74.3171 15.4461 72.81 15.1482 71.6475C14.7739 70.2503 15.7173 67.5078 15.7534 67.4232Z" fill="#929292"/>
<path d="M16.3212 68.5654C16.9354 69.4096 17.5455 70.0793 18.1318 71.0888C18.4723 71.6778 18.3464 73.2289 17.8873 73.8902C17.7513 74.1888 17.4903 74.3161 17.4903 74.3161C17.4879 74.3161 17.6823 72.1805 16.8349 70.8443C16.0093 69.556 15.767 67.5678 15.7549 67.4291C15.7823 67.5044 16.0014 68.1249 16.3212 68.5654Z" fill="#E6E6E6"/>
<path d="M19.3298 71.8284C19.3303 71.8303 19.3322 71.8311 19.3325 71.8331C19.3736 71.9511 20.0223 73.6372 21.0109 74.6499C22.0285 75.7009 22.3317 77.5757 22.3341 77.5755C22.3333 77.5761 20.2624 76.5207 19.75 75.553C19.1209 74.3905 19.3171 71.9059 19.3298 71.8284Z" fill="#929292"/>
<path d="M20.0682 72.7436C20.7796 73.3966 21.4486 73.9002 22.1706 74.7016C22.5906 75.1692 22.8235 76.5282 22.578 77.1578C22.5277 77.4331 22.3336 77.5754 22.3336 77.5754C22.3314 77.5756 22.028 75.7006 21.0105 74.6497C20.0221 73.6371 19.3731 71.9511 19.332 71.833C19.3723 71.8945 19.6975 72.4028 20.0682 72.7436Z" fill="#E6E6E6"/>
<path d="M31.8945 32.7095C31.8968 32.7112 31.8967 32.7129 31.8988 32.7145C32.0193 32.8215 33.7268 34.3778 34.3968 35.7318C35.0929 37.1342 37.2561 38.5401 37.2564 38.5405C37.2602 38.5408 37.1851 36.3934 36.2775 35.4084C35.1951 34.2198 31.9948 32.7533 31.8945 32.7095Z" fill="#929292"/>
<path d="M32.5902 33.8308C32.9767 34.7613 33.201 35.5634 33.7622 36.5926C34.0894 37.1931 35.6441 38.2271 36.5837 38.4503C36.9593 38.589 37.256 38.5406 37.256 38.5406C37.2557 38.54 35.0926 37.1343 34.3965 35.7318C33.7266 34.3778 32.0191 32.8216 31.8984 32.7146C31.9507 32.7835 32.3877 33.3456 32.5902 33.8308Z" fill="#E6E6E6"/>
<path d="M29.3555 37.1515C29.3583 37.1519 29.3597 37.1531 29.3624 37.1534C29.5316 37.1762 31.9618 37.523 33.5109 38.2527C35.116 39.0101 37.7705 38.959 37.7705 38.959C37.7727 38.958 35.9965 37.2761 34.5779 36.9705C32.8741 36.5998 29.4628 37.1347 29.3555 37.1515Z" fill="#929292"/>
<path d="M30.7295 37.6891C31.7362 38.2366 32.5291 38.765 33.7449 39.2908C34.4539 39.5983 36.3827 39.5851 37.2243 39.2521C37.6009 39.1587 37.7703 38.9585 37.7703 38.9585C37.7703 38.9585 35.1158 39.01 33.5107 38.2526C31.9619 37.523 29.5315 37.1762 29.3623 37.1533C29.4534 37.1815 30.2042 37.4041 30.7295 37.6891Z" fill="#E6E6E6"/>
<path d="M37.1279 35.7623C37.1296 35.7642 37.1295 35.7659 37.1313 35.7678C37.2319 35.8872 38.6419 37.6213 39.0466 39.031C39.469 40.4909 41.3549 42.1372 41.3547 42.1376C41.3586 42.1382 41.7112 40.0238 40.996 38.9467C40.1468 37.6483 37.2208 35.8173 37.1279 35.7623Z" fill="#929292"/>
<path d="M37.6074 36.946C37.8134 37.9049 37.8811 38.7183 38.2413 39.7965C38.4517 40.4254 39.8037 41.6311 40.6993 41.9662C41.048 42.1487 41.3543 42.1378 41.3543 42.1378C41.3546 42.1373 39.4684 40.491 39.0462 39.0311C38.6417 37.6215 37.2314 35.8875 37.1309 35.7679C37.1699 35.8418 37.4991 36.4459 37.6074 36.946Z" fill="#E6E6E6"/>
<path d="M33.7207 39.8041C33.7232 39.8048 33.7247 39.8062 33.7274 39.8068C33.8921 39.8497 36.2575 40.4871 37.6642 41.3935C39.121 42.3336 41.7861 42.6117 41.7866 42.6114C41.7893 42.611 40.346 40.7421 38.9847 40.2674C37.3506 39.6932 33.8306 39.8002 33.7207 39.8041Z" fill="#929292"/>
<path d="M34.9917 40.4996C35.8924 41.1599 36.5823 41.7757 37.6944 42.4412C38.3425 42.8298 40.2735 43.0544 41.1819 42.8318C41.5771 42.7868 41.7868 42.6114 41.7868 42.6114C41.7863 42.6117 39.121 42.3336 37.6644 41.3936C36.2578 40.4871 33.8923 39.8498 33.7275 39.8068C33.8132 39.8455 34.5213 40.1555 34.9917 40.4996Z" fill="#E6E6E6"/>
<path d="M42.0166 39.6292C42.0178 39.6314 42.0171 39.6328 42.0182 39.6351C42.0826 39.7687 42.9529 41.7007 42.9207 43.1292C42.893 44.6089 44.2455 46.555 44.2444 46.5556C44.2478 46.5564 45.2498 44.5988 44.8745 43.4292C44.4369 42.0202 42.0932 39.6995 42.0166 39.6292Z" fill="#929292"/>
<path d="M42.1328 40.8539C42.0451 41.811 41.8647 42.6027 41.8913 43.7055C41.9077 44.3489 42.8726 45.7675 43.6518 46.2634C43.9391 46.5063 44.2446 46.5556 44.2446 46.5556C44.2455 46.555 42.8929 44.6089 42.9207 43.1291C42.9531 41.7006 42.0826 39.7687 42.0182 39.635C42.0346 39.7132 42.1779 40.3547 42.1328 40.8539Z" fill="#E6E6E6"/>
<path d="M37.4238 42.838C37.4262 42.8392 37.4273 42.8407 37.4296 42.8418C37.5794 42.9147 39.7241 43.9823 40.8344 45.1247C41.9844 46.3084 44.5236 47.0939 44.5241 47.0939C44.5276 47.0939 43.6821 45.0205 42.4817 44.3012C41.0433 43.4325 37.5329 42.8548 37.4238 42.838Z" fill="#929292"/>
<path d="M38.4691 43.7503C39.1585 44.5577 39.6517 45.2821 40.5444 46.136C41.0646 46.6345 42.8965 47.2242 43.8601 47.1876C44.2633 47.2212 44.5244 47.094 44.5241 47.094C44.5235 47.0939 41.9844 46.3085 40.8345 45.1247C39.7241 43.9823 37.5796 42.9146 37.4297 42.8418C37.5027 42.8954 38.1086 43.3294 38.4691 43.7503Z" fill="#E6E6E6"/>
<path d="M45.5488 43.9565C45.5497 43.9588 45.5486 43.9602 45.5495 43.9625C45.593 44.1005 46.1579 46.0909 45.8959 47.4999C45.6314 48.96 46.671 51.0127 46.6697 51.0132C46.6727 51.0141 47.9921 49.1723 47.8053 47.9811C47.595 46.547 45.615 44.0332 45.5488 43.9565Z" fill="#929292"/>
<path d="M45.4701 45.1774C45.2292 46.1146 44.9222 46.88 44.7725 47.973C44.6862 48.6106 45.4247 50.1046 46.124 50.6686C46.3724 50.9358 46.6698 51.0135 46.6698 51.0135C46.6714 51.0129 45.6318 48.9601 45.8961 47.5002C46.1581 46.091 45.593 44.1007 45.5498 43.9628C45.5536 44.0413 45.595 44.6884 45.4701 45.1774Z" fill="#E6E6E6"/>
<path d="M40.4355 46.6963C40.4379 46.6977 40.4382 46.6994 40.4407 46.7007C40.5795 46.7865 42.5587 48.043 43.4873 49.2773C44.4494 50.5562 46.8614 51.572 46.8622 51.5724C46.866 51.5724 46.3554 49.4417 45.2681 48.6175C43.967 47.6227 40.5421 46.723 40.4355 46.6963Z" fill="#929292"/>
<path d="M41.3387 47.6964C41.9013 48.5597 42.2796 49.3223 43.0363 50.2511C43.4772 50.793 45.2141 51.5481 46.1836 51.6028C46.5813 51.674 46.863 51.5726 46.863 51.5726C46.8621 51.5723 44.45 50.5563 43.488 49.2775C42.5596 48.0433 40.5803 46.7869 40.4414 46.7009C40.5059 46.7605 41.0448 47.2464 41.3387 47.6964Z" fill="#E6E6E6"/>
<path d="M48.2251 48.6793C48.225 48.6816 48.224 48.6829 48.2243 48.6852C48.2325 48.826 48.2857 50.8507 47.6658 52.1827C47.0321 53.5636 47.5323 55.729 47.5301 55.7294C47.5321 55.7303 49.3107 54.1402 49.4326 52.951C49.5951 51.5205 48.2727 48.7639 48.2251 48.6793Z" fill="#929292"/>
<path d="M47.8365 49.8542C47.359 50.7284 46.86 51.4257 46.4336 52.4677C46.1861 53.0755 46.5348 54.648 47.0803 55.3076C47.2568 55.6072 47.5306 55.7292 47.5306 55.7292C47.5329 55.729 47.0324 53.5634 47.6663 52.1825C48.2863 50.8504 48.233 48.8259 48.2247 48.6851C48.2089 48.7623 48.085 49.398 47.8365 49.8542Z" fill="#E6E6E6"/>
<path d="M42.4639 50.548C42.4657 50.5496 42.4658 50.5513 42.4679 50.553C42.584 50.6581 44.2274 52.1905 44.831 53.5394C45.4575 54.9367 47.5763 56.3045 47.5768 56.305C47.5807 56.3055 47.6252 54.1466 46.7596 53.1735C45.7276 51.9999 42.5629 50.5901 42.4639 50.548Z" fill="#929292"/>
<path d="M43.1056 51.6631C43.4446 52.5924 43.6261 53.3953 44.1374 54.4194C44.4357 55.0169 45.9564 56.024 46.8986 56.2286C47.2723 56.3601 47.5768 56.305 47.5768 56.305C47.5764 56.3046 45.4574 54.9368 44.8309 53.5394C44.2275 52.1905 42.584 50.6582 42.4678 50.553C42.5169 50.6213 42.9281 51.1786 43.1056 51.6631Z" fill="#E6E6E6"/>
<path d="M49.7491 53.5474C49.7486 53.5497 49.7471 53.5507 49.7468 53.553C49.7212 53.6918 49.278 55.6776 48.3388 56.89C47.3748 58.1475 47.337 60.3439 47.334 60.344C47.3351 60.3449 49.4815 59.0481 49.8958 57.903C50.4105 56.5268 49.7768 53.6368 49.7491 53.5474Z" fill="#929292"/>
<path d="M49.077 54.6379C48.3907 55.4218 47.7268 56.03 47.0512 56.9873C46.6585 57.5459 46.6185 59.1378 46.994 59.8645C47.0947 60.1841 47.3341 60.3441 47.3341 60.3441C47.3372 60.344 47.3752 58.1476 48.3391 56.89C49.2783 55.6777 49.7215 53.6917 49.7471 53.5531C49.7124 53.626 49.4345 54.2287 49.077 54.6379Z" fill="#E6E6E6"/>
<path d="M43.5918 54.5251C43.5933 54.5271 43.593 54.5287 43.5947 54.5307C43.6844 54.6505 44.9406 56.3918 45.2071 57.8019C45.4865 59.2629 47.2378 60.915 47.2377 60.9156C47.2414 60.9163 47.8172 58.8065 47.2005 57.7266C46.4698 56.4252 43.6805 54.5806 43.5918 54.5251Z" fill="#929292"/>
<path d="M43.958 55.7111C44.0687 56.671 44.0535 57.4843 44.3089 58.5631C44.4581 59.1923 45.7109 60.4025 46.5885 60.7413C46.9247 60.925 47.2378 60.9157 47.2378 60.9157C47.2381 60.9152 45.4867 59.263 45.2072 57.802C44.9406 56.3917 43.6846 54.6508 43.5947 54.5308C43.627 54.6048 43.8994 55.2105 43.958 55.7111Z" fill="#E6E6E6"/>
<path d="M49.8192 59.2175C49.8179 59.2196 49.8162 59.2204 49.8151 59.2225C49.7438 59.3505 48.6462 61.1707 47.33 62.1502C45.9752 63.1672 45.2017 65.2839 45.1982 65.2836C45.1986 65.284 47.7072 64.4636 48.4957 63.4437C49.4596 62.2196 49.8172 59.3088 49.8192 59.2175Z" fill="#929292"/>
<path d="M48.8007 60.1298C47.8719 60.7447 47.0247 61.1961 46.0506 61.9831C45.484 62.4425 44.9134 63.9726 45.0312 64.7513C45.021 65.0807 45.1981 65.2836 45.1982 65.2836C45.2017 65.284 45.9754 63.1673 47.33 62.1502C48.6461 61.1708 49.7437 59.3504 49.815 59.2225C49.7566 59.2855 49.2847 59.8086 48.8007 60.1298Z" fill="#E6E6E6"/>
<path d="M43.5156 58.908C43.5164 58.9102 43.5158 58.9116 43.5165 58.9139C43.5653 59.0478 44.2079 60.9807 43.9953 62.3973C43.7803 63.8653 44.9145 65.8164 44.9132 65.817C44.9165 65.818 46.1834 63.8937 45.9483 62.727C45.6794 61.3221 43.5848 58.9792 43.5156 58.908Z" fill="#929292"/>
<path d="M43.4791 60.1262C43.2691 61.075 42.9854 61.8578 42.8737 62.9524C42.8095 63.5909 43.6144 65.0134 44.3459 65.5176C44.6081 65.763 44.9132 65.8169 44.9132 65.8169C44.9145 65.8165 43.7805 63.8651 43.9953 62.3973C44.2079 60.9806 43.5652 59.0477 43.5165 58.9138C43.523 58.9918 43.5882 59.6313 43.4791 60.1262Z" fill="#E6E6E6"/>
<path d="M48.453 64.0338C48.4516 64.0359 48.45 64.0366 48.4485 64.0386C48.367 64.1636 47.1238 65.9383 45.7278 66.8688C44.2904 67.8354 43.3499 69.9173 43.3467 69.9169C43.3468 69.9175 45.9247 69.1852 46.7952 68.1967C47.8581 67.0107 48.4441 64.1246 48.453 64.0338Z" fill="#929292"/>
<path d="M47.3604 64.9072C46.3809 65.4877 45.4963 65.9081 44.4584 66.6587C43.8546 67.0968 43.1637 68.6015 43.221 69.381C43.1852 69.7086 43.3468 69.9168 43.3468 69.9168C43.3503 69.9172 44.2904 67.8353 45.728 66.8687C47.1239 65.9382 48.3672 64.1636 48.4486 64.0386C48.3855 64.0993 47.871 64.604 47.3604 64.9072Z" fill="#E6E6E6"/>
<path d="M42.1553 63.5103C42.1558 63.5124 42.1552 63.5139 42.1557 63.5161C42.1942 63.651 42.6895 65.598 42.3663 67.0015C42.0375 68.4564 43.0213 70.438 43.0201 70.4385C43.0233 70.4395 44.443 68.5661 44.2983 67.3962C44.1387 65.988 42.2192 63.5835 42.1553 63.5103Z" fill="#929292"/>
<path d="M42.0243 64.7224C41.7403 65.6601 41.3954 66.4302 41.1988 67.5165C41.0849 68.1503 41.7811 69.5944 42.4747 70.1212C42.7185 70.3746 43.0198 70.4385 43.0198 70.4385C43.021 70.438 42.0372 68.4565 42.3659 67.0016C42.6892 65.598 42.1938 63.6511 42.1553 63.5161C42.1561 63.594 42.1716 64.233 42.0243 64.7224Z" fill="#E6E6E6"/>
<path d="M45.7047 69.3159C45.7027 69.3177 45.7006 69.3178 45.6986 69.3196C45.5744 69.4215 43.7279 70.8571 42.0567 71.4508C40.3322 72.069 38.6687 73.8823 38.665 73.8814C38.665 73.8814 41.3764 73.7326 42.5729 72.9684C44.0251 72.0535 45.6629 69.4006 45.7047 69.3159Z" fill="#929292"/>
<path d="M44.3385 69.9162C43.1904 70.26 42.1933 70.4714 40.9293 70.9698C40.1934 71.2607 38.981 72.5667 38.7452 73.3349C38.5892 73.6445 38.6648 73.8815 38.6648 73.8815C38.6682 73.8824 40.3318 72.0691 42.0564 71.4509C43.728 70.8571 45.5739 69.4215 45.6984 69.3197C45.6155 69.3641 44.9372 69.7364 44.3385 69.9162Z" fill="#E6E6E6"/>
<path d="M41.2763 74.0646C41.2738 74.066 41.2721 74.066 41.2695 74.0673C41.1223 74.1504 38.9629 75.3125 37.186 75.6715C35.3506 76.0463 33.2843 77.6152 33.2812 77.6141C33.2812 77.6141 35.9587 77.833 37.3148 77.2411C38.9569 76.5338 41.2144 74.1419 41.2763 74.0646Z" fill="#929292"/>
<path d="M39.7932 74.4689C38.5865 74.6504 37.5604 74.7226 36.2044 75.0427C35.4144 75.2297 33.9121 76.356 33.4942 77.0843C33.2659 77.3695 33.2815 77.6143 33.2815 77.6143C33.2843 77.6153 35.3508 76.0463 37.1862 75.6716C38.9631 75.3126 41.1226 74.1505 41.2697 74.0675C41.1775 74.1 40.4224 74.3736 39.7932 74.4689Z" fill="#E6E6E6"/>
<path d="M39.8972 67.4232C39.8971 67.4255 39.8956 67.4267 39.8955 67.429C39.8835 67.5678 39.641 69.5559 38.8154 70.8442C37.9682 72.1804 38.1626 74.316 38.1601 74.316C38.1618 74.3171 40.2045 72.81 40.5023 71.6475C40.8767 70.2503 39.9333 67.5078 39.8972 67.4232Z" fill="#929292"/>
<path d="M39.3293 68.5654C38.7152 69.4096 38.1049 70.0793 37.5187 71.0888C37.1781 71.6778 37.3041 73.2289 37.7632 73.8902C37.8993 74.1888 38.1603 74.3161 38.1603 74.3161C38.1627 74.3161 37.9683 72.1805 38.8156 70.8443C39.6412 69.556 39.8836 67.5678 39.8957 67.4291C39.8682 67.5044 39.6491 68.1249 39.3293 68.5654Z" fill="#E6E6E6"/>
<path d="M36.3218 71.8282C36.3214 71.8302 36.3194 71.8309 36.3191 71.833C36.278 71.951 35.6292 73.6371 34.6406 74.6497C33.6231 75.7008 33.3199 77.5756 33.3174 77.5754C33.3182 77.576 35.3892 76.5206 35.9015 75.5529C36.5307 74.3903 36.3346 71.9057 36.3218 71.8282Z" fill="#929292"/>
<path d="M35.5827 72.7436C34.8712 73.3966 34.2022 73.9002 33.4802 74.7016C33.0601 75.1692 32.8273 76.5282 33.0728 77.1578C33.1231 77.4331 33.3172 77.5754 33.3172 77.5754C33.3194 77.5756 33.6228 75.7006 34.6402 74.6497C35.6287 73.6371 36.2777 71.9511 36.3188 71.833C36.2784 71.8945 35.9533 72.4028 35.5827 72.7436Z" fill="#E6E6E6"/>
<path d="M32.3522 78.1068C32.3522 79.1536 30.3545 80.0021 27.89 80.0021C25.4255 80.0021 23.4277 79.1536 23.4277 78.1068C23.4277 77.0601 25.4255 76.2115 27.89 76.2115C30.3545 76.2116 32.3522 77.0601 32.3522 78.1068Z" fill="#929292"/>
<path d="M27.8905 79.6707C25.458 79.6707 23.7627 78.8466 23.7627 78.1068C23.7627 77.3672 25.4579 76.543 27.8905 76.543C30.3232 76.543 32.0184 77.3672 32.0184 78.1068C32.0184 78.8466 30.3232 79.6707 27.8905 79.6707Z" fill="#E6E6E6"/>
<path d="M18.7109 68.0766V62.8734L19.2029 62.5205C23.8673 59.1755 28.635 55.4011 28.635 52.764C28.635 52.3225 28.635 50.9784 26.3841 50.9784C24.9279 50.9784 23.1266 51.6053 21.5652 52.6547L21.2626 52.8578H19.258V46.3025L19.9719 45.994C21.9689 45.1304 24.7669 44.5946 27.2746 44.5946C33.0705 44.5946 36.5308 47.3784 36.5308 52.041C36.5308 55.998 33.7385 59.1174 30.4648 61.7537H37.4997V68.0766H18.7109Z" fill="#929292"/>
<path d="M36.3101 66.8975H19.9004V63.4755C25.5214 59.4443 29.8246 55.8173 29.8246 52.7643C29.8246 49.0465 24.899 48.9897 20.8971 51.679H20.4479V47.0744C24.6978 45.2369 35.3413 44.2159 35.3413 52.0408C35.3413 56.4449 31.19 59.8948 26.919 62.9327H36.31L36.3101 66.8975Z" fill="#EAEAEA"/>
</svg>
