<svg width="56" height="86" viewBox="0 0 56 86" fill="none" xmlns="http://www.w3.org/2000/svg">
<path d="M45.2719 -6.10352e-05L35.5635 26.8669H30.1689L39.8491 0.0218826V-6.10352e-05H45.2719Z" fill="#9871F3"/>
<path d="M39.8495 -6.10352e-05V0.0218826L30.1694 26.8669H24.8428L34.5228 0.0218826V-6.10352e-05H39.8495Z" fill="#F0F0F0"/>
<path d="M34.5222 0V0.0219437L24.8421 26.867H19.4004L29.1089 0H34.5222Z" fill="#6F9DE2"/>
<path d="M39.355 27.267C40.0679 28.8427 40.4638 30.5387 40.527 32.2596C36.7114 30.3277 32.3879 29.2381 27.8089 29.2381C22.9744 29.2381 18.4269 30.4527 14.46 32.5879C14.4805 30.7543 14.8827 28.9427 15.6399 27.267L15.9932 26.487C16.3875 25.6132 17.2078 25.002 18.1652 24.8692L19.2078 24.7238C24.7064 23.961 30.2885 23.961 35.7887 24.7238L36.8297 24.8692C37.7872 25.0021 38.6074 25.6132 39.0018 26.487L39.355 27.267ZM36.5488 28.0345V27.0091C36.5488 26.7121 36.3059 26.4714 36.0063 26.4714H18.9885C18.6888 26.4714 18.4458 26.7122 18.4458 27.0091V28.0345C18.4458 28.333 18.6888 28.5738 18.9885 28.5738H36.0063C36.306 28.5738 36.5488 28.3331 36.5488 28.0345Z" fill="#FDBC62"/>
<path d="M9.69043 0L19.3989 26.867H24.7933L15.1133 0.0219437V0H9.69043Z" fill="#6F9DE2"/>
<path d="M15.1143 0V0.0219437L24.7943 26.867H30.121L20.4409 0.0219437V0H15.1143Z" fill="#F0F0F0"/>
<path d="M20.4404 0V0.0219437L30.1206 26.867H35.5624L25.8539 0H20.4404Z" fill="#9871F3"/>
<path d="M40.7172 32.2597C49.7885 36.849 56 46.198 56 56.9851C56 72.3099 43.4633 84.7337 27.9993 84.7337C12.5351 84.7337 0 72.31 0 56.9851C0 46.4512 5.92291 37.2882 14.6503 32.5879C18.6173 30.4527 23.1647 29.2382 27.9993 29.2382C32.5782 29.2382 36.9017 30.3276 40.7172 32.2597Z" fill="#EDAC55"/>
<path d="M27.9992 82.5224C21.1161 82.5224 14.6453 79.866 9.77849 75.0426C4.91167 70.2193 2.23145 63.8064 2.23145 56.9852C2.23145 47.6145 7.39803 39.0109 15.7149 34.5317C19.4609 32.5154 23.7088 31.4496 27.9992 31.4496C32.1221 31.4496 36.0597 32.3849 39.7028 34.2296C43.8692 36.3375 47.3839 39.5325 49.8674 43.4697C52.4195 47.5156 53.7685 52.1892 53.7685 56.9853C53.7685 63.8064 51.088 70.2193 46.2208 75.0427C41.3535 79.8661 34.8823 82.5224 27.9992 82.5224Z" fill="#FDBC62"/>
<path d="M23.4245 32.7098C23.4222 32.7115 23.4223 32.7132 23.4202 32.7149C23.2998 32.8219 21.5922 34.3782 20.9222 35.7321C20.2262 37.1346 18.0629 38.5404 18.0626 38.5409C18.0588 38.5412 18.1339 36.3939 19.0415 35.4087C20.124 34.2201 23.3242 32.7536 23.4245 32.7098Z" fill="#C49047"/>
<path d="M22.7283 33.8308C22.3418 34.7612 22.1175 35.5633 21.5563 36.5926C21.2291 37.193 19.6744 38.227 18.7348 38.4503C18.3593 38.5889 18.0625 38.5405 18.0625 38.5405C18.0628 38.54 20.2259 37.1343 20.922 35.7318C21.592 34.3777 23.2993 32.8215 23.4201 32.7145C23.3678 32.7834 22.9308 33.3456 22.7283 33.8308Z" fill="#FFDEAE"/>
<path d="M25.9619 37.1515C25.9591 37.1519 25.9576 37.1531 25.9549 37.1534C25.7858 37.1762 23.3555 37.523 21.8065 38.2527C20.2013 39.0101 17.5469 38.959 17.5469 38.9585C17.5447 38.958 19.3209 37.2761 20.7394 36.9705C22.4433 36.5998 25.8546 37.1347 25.9619 37.1515Z" fill="#C49047"/>
<path d="M24.5877 37.689C23.581 38.2365 22.7881 38.765 21.5724 39.2908C20.8633 39.5983 18.9346 39.5851 18.093 39.252C17.7163 39.1586 17.5469 38.9584 17.5469 38.9584C17.5469 38.9588 20.2015 39.01 21.8065 38.2525C23.3554 37.5229 25.7857 37.1761 25.9549 37.1533C25.8639 37.1814 25.1131 37.4041 24.5877 37.689Z" fill="#FFDEAE"/>
<path d="M18.1901 35.7625C18.1884 35.7644 18.1886 35.766 18.1868 35.7679C18.0861 35.8874 16.6761 37.6215 16.2715 39.0311C15.8491 40.491 13.9632 42.1373 13.9633 42.1378C13.9595 42.1383 13.6069 40.0239 14.3221 38.9468C15.1712 37.6484 18.0971 35.8175 18.1901 35.7625Z" fill="#C49047"/>
<path d="M17.7098 36.9462C17.5038 37.9051 17.4361 38.7186 17.0759 39.7967C16.8654 40.4256 15.5134 41.6312 14.6179 41.9664C14.2692 42.1489 13.9629 42.138 13.9629 42.138C13.9626 42.1375 15.8488 40.4912 16.271 39.0313C16.6755 37.6218 18.0858 35.8877 18.1863 35.7681C18.1472 35.842 17.8181 36.4461 17.7098 36.9462Z" fill="#FFDEAE"/>
<path d="M21.5981 39.8043C21.5956 39.8049 21.5941 39.8063 21.5915 39.8069C21.4267 39.8499 19.0613 40.4872 17.6546 41.3937C16.1979 42.3338 13.5327 42.6118 13.5322 42.6116C13.5295 42.6111 14.9729 40.7422 16.3342 40.2675C17.9683 39.6933 21.4884 39.8004 21.5981 39.8043Z" fill="#C49047"/>
<path d="M20.3272 40.4998C19.4266 41.1602 18.7367 41.776 17.6246 42.4415C16.9764 42.8301 15.0455 43.0546 14.1371 42.8321C13.742 42.787 13.5322 42.6116 13.5322 42.6116C13.5328 42.6119 16.198 42.3339 17.6546 41.3938C19.0612 40.4874 21.4267 39.85 21.5915 39.807C21.5059 39.8458 20.7977 40.1557 20.3272 40.4998Z" fill="#FFDEAE"/>
<path d="M13.3034 39.6295C13.3022 39.6317 13.3029 39.6332 13.3017 39.6354C13.2374 39.7691 12.3671 41.701 12.3992 43.1296C12.427 44.6093 11.0744 46.5554 11.0756 46.556C11.0721 46.5568 10.0702 44.5992 10.4454 43.4296C10.8831 42.0206 13.2268 39.6999 13.3034 39.6295Z" fill="#C49047"/>
<path d="M13.1871 40.8544C13.2747 41.8114 13.4552 42.6031 13.4286 43.706C13.4121 44.3494 12.4473 45.768 11.6681 46.2638C11.3808 46.5067 11.0752 46.5561 11.0752 46.5561C11.0743 46.5555 12.4269 44.6094 12.399 43.1296C12.3667 41.7011 13.2372 39.7691 13.3015 39.6355C13.2853 39.7137 13.1421 40.3552 13.1871 40.8544Z" fill="#FFDEAE"/>
<path d="M17.8958 42.8384C17.8933 42.8395 17.8924 42.8411 17.89 42.8422C17.7401 42.915 15.5955 43.9827 14.4851 45.125C13.3352 46.3088 10.7959 47.0943 10.7959 47.0943C10.7919 47.0943 11.6375 45.0208 12.8378 44.3016C14.2763 43.4328 17.7867 42.8552 17.8958 42.8384Z" fill="#C49047"/>
<path d="M16.8501 43.7508C16.1607 44.5582 15.6673 45.2827 14.7747 46.1366C14.2545 46.635 12.4226 47.2248 11.459 47.1882C11.0558 47.2218 10.7948 47.0946 10.7949 47.0945C10.7956 47.0944 13.3347 46.309 14.4846 45.1252C15.5951 43.9828 17.7396 42.9152 17.8895 42.8424C17.8165 42.896 17.2105 43.3299 16.8501 43.7508Z" fill="#FFDEAE"/>
<path d="M9.77161 43.9565C9.77076 43.9588 9.77185 43.9602 9.77092 43.9625C9.72741 44.1004 9.16262 46.0908 9.42454 47.4999C9.68901 48.9599 8.64948 51.0126 8.65079 51.0131C8.64777 51.014 7.32837 49.1722 7.51519 47.9811C7.72546 46.547 9.70542 44.0331 9.77161 43.9565Z" fill="#C49047"/>
<path d="M9.85003 45.1774C10.091 46.1146 10.398 46.88 10.5477 47.973C10.6341 48.6106 9.89547 50.1046 9.19613 50.6686C8.94777 50.9359 8.65039 51.0135 8.65039 51.0135C8.64877 51.0129 9.68837 48.9601 9.42406 47.5002C9.16214 46.091 9.72716 44.1007 9.77044 43.9628C9.76657 44.0413 9.72515 44.6884 9.85003 45.1774Z" fill="#FFDEAE"/>
<path d="M14.8837 46.6962C14.8813 46.6976 14.881 46.6993 14.8786 46.7006C14.7397 46.7865 12.7606 48.0429 11.832 49.2773C10.8699 50.5561 8.4579 51.572 8.45705 51.5723C8.45334 51.5724 8.96392 49.4416 10.0512 48.6175C11.3522 47.6227 14.7771 46.7229 14.8837 46.6962Z" fill="#C49047"/>
<path d="M13.9811 47.6965C13.4186 48.5597 13.0403 49.3224 12.2835 50.2511C11.8426 50.793 10.1058 51.5481 9.13632 51.6028C8.73853 51.674 8.45703 51.5726 8.45703 51.5726C8.45781 51.5723 10.8698 50.5564 11.832 49.2776C12.7604 48.0433 14.7396 46.7869 14.8785 46.7009C14.8139 46.7606 14.2751 47.2464 13.9811 47.6965Z" fill="#FFDEAE"/>
<path d="M7.09148 48.6791C7.09156 48.6814 7.09256 48.6827 7.09233 48.685C7.08397 48.8258 7.03086 50.8505 7.65069 52.1825C8.28445 53.5634 7.78424 55.7288 7.78641 55.7292C7.78447 55.7302 6.00581 54.14 5.88395 52.9509C5.72144 51.5204 7.04371 48.7637 7.09148 48.6791Z" fill="#C49047"/>
<path d="M7.47969 49.8543C7.95722 50.7285 8.4562 51.4257 8.88271 52.4677C9.13015 53.0755 8.78144 54.648 8.23602 55.3076C8.0595 55.6072 7.78566 55.7294 7.78566 55.7294C7.78334 55.7291 8.28378 53.5635 7.64994 52.1825C7.03003 50.8505 7.0833 48.826 7.09158 48.6851C7.10746 48.7623 7.23125 49.398 7.47969 49.8543Z" fill="#FFDEAE"/>
<path d="M12.8527 50.5477C12.8508 50.5493 12.8508 50.551 12.8487 50.5527C12.7326 50.6578 11.0891 52.1902 10.4856 53.5391C9.8591 54.9364 7.74025 56.3042 7.73979 56.3047C7.73592 56.3052 7.6914 54.1463 8.55696 53.1732C9.5889 51.9996 12.7536 50.5898 12.8527 50.5477Z" fill="#C49047"/>
<path d="M12.2103 51.663C11.8713 52.5924 11.6898 53.3953 11.1786 54.4194C10.8803 55.0168 9.35952 56.024 8.41731 56.2285C8.0436 56.36 7.73903 56.3049 7.73926 56.3049C7.73949 56.3046 9.85849 54.9367 10.4851 53.5394C11.0884 52.1904 12.732 50.6582 12.8482 50.5529C12.7992 50.6212 12.3879 51.1785 12.2103 51.663Z" fill="#FFDEAE"/>
<path d="M5.56932 53.5474C5.56978 53.5497 5.57125 53.5508 5.57156 53.553C5.59719 53.6917 6.04035 55.6776 6.97954 56.8899C7.94358 58.1475 7.98136 60.344 7.98438 60.344C7.98322 60.3449 5.83688 59.0481 5.42253 57.903C4.90784 56.5267 5.54152 53.6369 5.56932 53.5474Z" fill="#C49047"/>
<path d="M6.24226 54.6377C6.9286 55.4217 7.59256 56.0298 8.26813 56.9871C8.66081 57.5457 8.70083 59.1376 8.32534 59.8643C8.2247 60.1839 7.98516 60.3439 7.98516 60.3439C7.98214 60.3438 7.9442 58.1474 6.98024 56.8898C6.04113 55.6775 5.59789 53.6916 5.57227 53.5529C5.60695 53.6258 5.88481 54.2285 6.24226 54.6377Z" fill="#FFDEAE"/>
<path d="M11.7247 54.5251C11.7232 54.5271 11.7234 54.5287 11.7219 54.5307C11.6321 54.6505 10.3759 56.3918 10.1093 57.802C9.83001 59.2629 8.07868 60.915 8.07884 60.9156C8.07504 60.9163 7.49934 58.8065 8.116 57.7266C8.84662 56.4252 11.6359 54.5806 11.7247 54.5251Z" fill="#C49047"/>
<path d="M11.3581 55.7114C11.2473 56.6712 11.2626 57.4845 11.007 58.5633C10.858 59.1926 9.6051 60.4027 8.72745 60.7415C8.39137 60.9253 8.07813 60.9159 8.07813 60.9159C8.07789 60.9154 9.82923 59.2632 10.1087 57.8023C10.3754 56.3919 11.6313 54.651 11.7212 54.531C11.689 54.605 11.4167 55.2108 11.3581 55.7114Z" fill="#FFDEAE"/>
<path d="M5.49902 59.2176C5.50034 59.2197 5.50196 59.2205 5.50313 59.2226C5.57443 59.3506 6.67202 61.1709 7.98818 62.1503C9.34296 63.1672 10.1165 65.284 10.12 65.2836C10.1196 65.2841 7.61098 64.4636 6.82245 63.4437C5.85849 62.2197 5.50088 59.3089 5.49902 59.2176Z" fill="#C49047"/>
<path d="M6.5173 60.1299C7.44604 60.7448 8.29333 61.1961 9.26736 61.9832C9.83392 62.4426 10.4047 63.9727 10.2868 64.7514C10.2971 65.0808 10.12 65.2837 10.12 65.2837C10.1163 65.2841 9.34253 63.1674 7.98798 62.1503C6.67183 61.1709 5.57423 59.3506 5.50293 59.2227C5.5613 59.2856 6.03334 59.8088 6.5173 60.1299Z" fill="#FFDEAE"/>
<path d="M11.8026 58.9083C11.8019 58.9106 11.8025 58.9119 11.8017 58.9142C11.7529 59.0482 11.1103 60.9812 11.3229 62.3977C11.5379 63.8656 10.4036 65.8168 10.405 65.8173C10.4017 65.8183 9.13479 63.8942 9.36992 62.7274C9.6388 61.3225 11.7335 58.9796 11.8026 58.9083Z" fill="#C49047"/>
<path d="M11.8384 60.1264C12.0484 61.0752 12.3322 61.8581 12.4438 62.9526C12.5081 63.5912 11.7032 65.0136 10.9716 65.5179C10.7093 65.7633 10.4043 65.8172 10.4043 65.8172C10.4031 65.8168 11.537 63.8654 11.3223 62.3975C11.1097 60.9808 11.7523 59.0479 11.8011 58.9141C11.7945 58.992 11.7294 59.6315 11.8384 60.1264Z" fill="#FFDEAE"/>
<path d="M6.86426 64.0336C6.86565 64.0357 6.86728 64.0365 6.86875 64.0385C6.95027 64.1634 8.19349 65.9381 9.58939 66.8686C11.0268 67.8352 11.9673 69.9172 11.9705 69.9167C11.9704 69.9173 9.39251 69.185 8.52199 68.1965C7.45931 67.0105 6.87324 64.1245 6.86426 64.0336Z" fill="#C49047"/>
<path d="M7.95647 64.9071C8.93592 65.4876 9.82052 65.9079 10.8583 66.6587C11.4622 67.0968 12.1531 68.6015 12.0958 69.3809C12.1316 69.7087 11.97 69.9167 11.97 69.9167C11.9665 69.9171 11.0264 67.8352 9.58881 66.8687C8.19283 65.9381 6.94953 64.1635 6.86816 64.0385C6.93142 64.0992 7.44595 64.6038 7.95647 64.9071Z" fill="#FFDEAE"/>
<path d="M13.1632 63.5103C13.1626 63.5124 13.1633 63.5139 13.1627 63.5162C13.1242 63.651 12.6289 65.598 12.9521 67.0015C13.2809 68.4564 12.2972 70.438 12.2983 70.4385C12.2951 70.4395 10.8755 68.5661 11.0201 67.3962C11.1798 65.988 13.0992 63.5835 13.1632 63.5103Z" fill="#C49047"/>
<path d="M13.2943 64.7223C13.5784 65.6601 13.9233 66.4301 14.1198 67.5164C14.2336 68.1502 13.5376 69.5943 12.8439 70.1211C12.6001 70.3746 12.2988 70.4385 12.2988 70.4385C12.2977 70.4379 13.2815 68.4564 12.9527 67.0015C12.6294 65.5979 13.1249 63.6511 13.1633 63.5161C13.1625 63.594 13.147 64.2329 13.2943 64.7223Z" fill="#FFDEAE"/>
<path d="M9.61328 69.3159C9.61529 69.3177 9.61739 69.3178 9.6194 69.3196C9.74366 69.4215 11.5901 70.8571 13.2613 71.4508C14.9858 72.069 16.6493 73.8823 16.6529 73.8814C16.6535 73.8815 13.9416 73.7326 12.745 72.9684C11.2928 72.0535 9.65493 69.4007 9.61328 69.3159Z" fill="#C49047"/>
<path d="M10.979 69.9163C12.1271 70.2601 13.1243 70.4715 14.3882 70.9699C15.1241 71.2608 16.3365 72.5668 16.5722 73.335C16.7284 73.6447 16.6527 73.8817 16.6527 73.8817C16.6492 73.8825 14.9856 72.0692 13.261 71.451C11.5895 70.8572 9.74356 69.4216 9.61914 69.3198C9.70206 69.3642 10.3803 69.7365 10.979 69.9163Z" fill="#FFDEAE"/>
<path d="M14.042 74.0648C14.0445 74.0663 14.0462 74.0661 14.0488 74.0675C14.196 74.1506 16.3554 75.3126 18.1324 75.6716C19.9678 76.0464 22.0341 77.6153 22.0371 77.6143C22.0371 77.6143 19.3596 77.8332 18.0035 77.2413C16.3614 76.534 14.1039 74.1421 14.042 74.0648Z" fill="#C49047"/>
<path d="M15.5244 74.4689C16.7311 74.6505 17.7572 74.7226 19.1132 75.0427C19.9031 75.2297 21.4054 76.3561 21.8234 77.0843C22.0517 77.3695 22.0361 77.6143 22.0361 77.6143C22.0333 77.6153 19.9667 76.0464 18.1314 75.6716C16.3545 75.3126 14.1949 74.1505 14.0479 74.0675C14.1401 74.1 14.895 74.3736 15.5244 74.4689Z" fill="#FFDEAE"/>
<path d="M15.4194 67.4238C15.4195 67.4261 15.4209 67.4273 15.4211 67.4296C15.433 67.5683 15.6756 69.5564 16.5011 70.8448C17.3483 72.1809 17.1539 74.3165 17.1565 74.3166C17.1548 74.3176 15.1121 72.8105 14.8143 71.6481C14.4398 70.2508 15.3833 67.5084 15.4194 67.4238Z" fill="#C49047"/>
<path d="M15.9881 68.5658C16.6023 69.41 17.2125 70.0797 17.7988 71.0892C18.1393 71.6782 18.0134 73.2292 17.5543 73.8906C17.4182 74.1892 17.1573 74.3166 17.1573 74.3166C17.1549 74.3164 17.3493 72.1808 16.5019 70.8447C15.6763 69.5563 15.434 67.5681 15.4219 67.4295C15.4492 67.5048 15.6683 68.1252 15.9881 68.5658Z" fill="#FFDEAE"/>
<path d="M18.9967 71.8286C18.9972 71.8305 18.9992 71.8312 18.9994 71.8333C19.0405 71.9513 19.6893 73.6374 20.6779 74.6501C21.6954 75.7011 21.9987 77.5759 22.0011 77.5757C22.0002 77.5763 19.9294 76.5209 19.4169 75.5532C18.788 74.3907 18.9841 71.906 18.9967 71.8286Z" fill="#C49047"/>
<path d="M19.7361 72.7441C20.4476 73.3971 21.1165 73.9006 21.8386 74.702C22.2586 75.1697 22.4915 76.5287 22.246 77.1582C22.1957 77.4335 22.0016 77.5758 22.0016 77.5758C21.9994 77.576 21.696 75.701 20.6785 74.6502C19.69 73.6375 19.0411 71.9515 19 71.8334C19.0403 71.895 19.3654 72.4032 19.7361 72.7441Z" fill="#FFDEAE"/>
<path d="M31.5615 32.7095C31.5638 32.7112 31.5637 32.7129 31.5658 32.7145C31.6862 32.8215 33.3938 34.3778 34.0638 35.7318C34.7598 37.1343 36.9231 38.5401 36.9231 38.5401C36.9272 38.5408 36.8521 36.3935 35.9445 35.4084C34.862 34.2198 31.6618 32.7533 31.5615 32.7095Z" fill="#C49047"/>
<path d="M32.2572 33.8311C32.6437 34.7615 32.868 35.5636 33.4292 36.5929C33.7564 37.1933 35.3111 38.2273 36.2507 38.4506C36.6263 38.5892 36.923 38.5408 36.923 38.5408C36.923 38.5408 34.7596 37.1346 34.0635 35.7321C33.3936 34.378 31.6861 32.8218 31.5654 32.7148C31.6177 32.7837 32.0547 33.3459 32.2572 33.8311Z" fill="#FFDEAE"/>
<path d="M29.0234 37.1514C29.0262 37.1518 29.0277 37.1529 29.0304 37.1533C29.1996 37.1761 31.6297 37.5229 33.1788 38.2525C34.784 39.01 37.4384 38.9589 37.4384 38.9584C37.4406 38.9579 35.6644 37.276 34.2459 36.9703C32.5421 36.5997 29.1307 37.1346 29.0234 37.1514Z" fill="#C49047"/>
<path d="M30.3965 37.6889C31.4032 38.2364 32.1961 38.7649 33.4118 39.2907C34.1209 39.5981 36.0496 39.585 36.8912 39.2519C37.2678 39.1585 37.4373 38.9583 37.4373 38.9583C37.4373 38.9587 34.7827 39.0098 33.1777 38.2524C31.6289 37.5228 29.1985 37.176 29.0293 37.1531C29.1203 37.1813 29.8711 37.4039 30.3965 37.6889Z" fill="#FFDEAE"/>
<path d="M36.793 35.763C36.7947 35.7649 36.7945 35.7665 36.7963 35.7684C36.8969 35.8879 38.3069 37.622 38.7116 39.0316C39.134 40.4915 41.0199 42.1379 41.0197 42.1383C41.0236 42.1389 41.3761 40.0244 40.661 38.9474C39.8118 37.6489 36.8859 35.818 36.793 35.763Z" fill="#C49047"/>
<path d="M37.2734 36.9465C37.4794 37.9053 37.5472 38.7188 37.9073 39.797C38.1177 40.4259 39.4697 41.6315 40.3653 41.9666C40.714 42.1491 41.0203 42.1382 41.0203 42.1382C41.0206 42.1377 39.1344 40.4914 38.7122 39.0316C38.3077 37.622 36.8974 35.8879 36.7969 35.7684C36.8359 35.8423 37.1651 36.4464 37.2734 36.9465Z" fill="#FFDEAE"/>
<path d="M33.3887 39.8047C33.3911 39.8053 33.3927 39.8067 33.3953 39.8073C33.5601 39.8503 35.9255 40.4876 37.3322 41.3941C38.7889 42.3342 41.4541 42.6122 41.4546 42.612C41.4572 42.6115 40.0139 40.7426 38.6527 40.268C37.0185 39.6938 33.4985 39.8008 33.3887 39.8047Z" fill="#C49047"/>
<path d="M34.6597 40.5001C35.5604 41.1605 36.2502 41.7763 37.3624 42.4418C38.0105 42.8304 39.9415 43.0549 40.8499 42.8324C41.245 42.7873 41.4548 42.6119 41.4548 42.6119C41.4542 42.6122 38.789 42.3342 37.3323 41.3941C35.9258 40.4877 33.5603 39.8504 33.3955 39.8073C33.4812 39.8461 34.1893 40.156 34.6597 40.5001Z" fill="#FFDEAE"/>
<path d="M41.6826 39.629C41.6839 39.6313 41.6832 39.6327 41.6842 39.6349C41.7486 39.7686 42.6189 41.7006 42.5867 43.1291C42.559 44.6088 43.9116 46.5549 43.9104 46.5555C43.9138 46.5563 44.9158 44.5987 44.5405 43.4291C44.1029 42.0201 41.7592 39.6994 41.6826 39.629Z" fill="#C49047"/>
<path d="M41.7998 40.8539C41.7121 41.811 41.5317 42.6027 41.5583 43.7056C41.5747 44.3489 42.5396 45.7675 43.3188 46.2634C43.6061 46.5063 43.9117 46.5556 43.9117 46.5556C43.9125 46.555 42.56 44.6089 42.5878 43.1291C42.6201 41.7006 41.7497 39.7687 41.6853 39.635C41.7016 39.7132 41.8449 40.3547 41.7998 40.8539Z" fill="#FFDEAE"/>
<path d="M37.0908 42.8376C37.0932 42.8388 37.0943 42.8403 37.0966 42.8415C37.2464 42.9143 39.3911 43.982 40.5014 45.1243C41.6514 46.3081 44.1906 47.0936 44.1911 47.0936C44.1947 47.0936 43.3491 45.0201 42.1488 44.3008C40.7102 43.4321 37.1999 42.8544 37.0908 42.8376Z" fill="#C49047"/>
<path d="M38.1371 43.75C38.8265 44.5574 39.3198 45.2818 40.2124 46.1357C40.7326 46.6341 42.5646 47.2239 43.5281 47.1873C43.9313 47.2209 44.1923 47.0937 44.1922 47.0936C44.1916 47.0935 41.6525 46.3081 40.5025 45.1244C39.3921 43.982 37.2475 42.9144 37.0977 42.8416C37.1707 42.8951 37.7766 43.329 38.1371 43.75Z" fill="#FFDEAE"/>
<path d="M45.2168 43.9566C45.2176 43.9589 45.2166 43.9603 45.2174 43.9626C45.2609 44.1005 45.8258 46.091 45.5638 47.5C45.2993 48.96 46.3389 51.0128 46.3375 51.0132C46.3406 51.0141 47.66 49.1723 47.4732 47.9812C47.263 46.5471 45.283 44.0333 45.2168 43.9566Z" fill="#C49047"/>
<path d="M45.1371 45.1777C44.8962 46.1149 44.5892 46.8804 44.4395 47.9734C44.3531 48.611 45.0917 50.105 45.791 50.669C46.0394 50.9363 46.3368 51.0138 46.3368 51.0138C46.3384 51.0133 45.2988 48.9605 45.5631 47.5005C45.8251 46.0914 45.26 44.1011 45.2168 43.9631C45.2206 44.0417 45.2621 44.6888 45.1371 45.1777Z" fill="#FFDEAE"/>
<path d="M40.1016 46.6966C40.104 46.698 40.1043 46.6997 40.1068 46.701C40.2456 46.7868 42.2247 48.0433 43.1533 49.2776C44.1154 50.5565 46.5274 51.5724 46.5283 51.5727C46.532 51.5727 46.0214 49.442 44.9341 48.6178C43.6331 47.623 40.2081 46.7233 40.1016 46.6966Z" fill="#C49047"/>
<path d="M41.0038 47.6966C41.5663 48.5598 41.9446 49.3225 42.7014 50.2511C43.1423 50.7931 44.8791 51.5482 45.8487 51.6028C46.2464 51.674 46.528 51.5726 46.528 51.5726C46.5271 51.5724 44.1151 50.5564 43.153 49.2777C42.2246 48.0433 40.2453 46.7869 40.1064 46.701C40.1709 46.7607 40.7098 47.2465 41.0038 47.6966Z" fill="#FFDEAE"/>
<path d="M47.8921 48.679C47.892 48.6813 47.891 48.6825 47.8912 48.6849C47.8995 48.8257 47.9527 50.8504 47.3328 52.1823C46.6991 53.5633 47.1993 55.7287 47.1972 55.7291C47.1991 55.73 48.9778 54.1399 49.0996 52.9507C49.2621 51.5202 47.9397 48.7636 47.8921 48.679Z" fill="#C49047"/>
<path d="M47.5036 49.8542C47.0261 50.7284 46.5271 51.4256 46.1006 52.4676C45.8531 53.0754 46.2018 54.6479 46.7473 55.3075C46.9237 55.6071 47.1977 55.7293 47.1977 55.7293C47.2 55.729 46.6995 53.5634 47.3333 52.1824C47.9533 50.8504 47.9 48.8259 47.8917 48.685C47.8759 48.7622 47.7521 49.3979 47.5036 49.8542Z" fill="#FFDEAE"/>
<path d="M42.1309 50.5476C42.1328 50.5492 42.1328 50.5509 42.1349 50.5526C42.251 50.6578 43.8944 52.1902 44.498 53.539C45.1245 54.9363 47.2433 56.3041 47.2438 56.3046C47.2477 56.3051 47.2922 54.1462 46.4266 53.1731C45.3947 51.9995 42.23 50.5897 42.1309 50.5476Z" fill="#C49047"/>
<path d="M42.7726 51.6626C43.1116 52.5919 43.2931 53.3949 43.8043 54.419C44.1026 55.0164 45.6234 56.0236 46.5656 56.2281C46.9393 56.3596 47.2438 56.3045 47.2438 56.3045C47.2434 56.3041 45.1244 54.9363 44.4979 53.5389C43.8945 52.19 42.251 50.6578 42.1348 50.5525C42.1839 50.6208 42.5951 51.1781 42.7726 51.6626Z" fill="#FFDEAE"/>
<path d="M49.416 53.5475C49.4156 53.5498 49.4141 53.5509 49.4138 53.5531C49.3882 53.6918 48.945 55.6776 48.0058 56.89C47.0418 58.1476 47.004 60.344 47.001 60.3441C47.0021 60.3449 49.1484 59.0482 49.5628 57.9031C50.0775 56.5268 49.4438 53.6369 49.416 53.5475Z" fill="#C49047"/>
<path d="M48.744 54.6379C48.0577 55.4219 47.3938 56.03 46.7182 56.9874C46.3255 57.5459 46.2855 59.1378 46.661 59.8646C46.7616 60.1842 47.0011 60.3442 47.0011 60.3442C47.0042 60.3441 47.0421 58.1476 48.0061 56.8901C48.9452 55.6778 49.3885 53.6918 49.4141 53.5532C49.3794 53.626 49.1015 54.2288 48.744 54.6379Z" fill="#FFDEAE"/>
<path d="M43.2598 54.525C43.2613 54.5269 43.261 54.5285 43.2626 54.5305C43.3524 54.6503 44.6086 56.3916 44.8751 57.8018C45.1545 59.2627 46.9058 60.9149 46.9057 60.9154C46.9094 60.9161 47.4852 58.8063 46.8685 57.7265C46.1378 56.425 43.3485 54.5804 43.2598 54.525Z" fill="#C49047"/>
<path d="M43.6259 55.7106C43.7366 56.6704 43.7213 57.4837 43.9768 58.5626C44.1259 59.1918 45.3788 60.4019 46.2564 60.7407C46.5926 60.9245 46.9057 60.9151 46.9057 60.9151C46.906 60.9147 45.1546 59.2624 44.8751 57.8015C44.6085 56.3911 43.3526 54.6502 43.2627 54.5302C43.2948 54.6043 43.5673 55.21 43.6259 55.7106Z" fill="#FFDEAE"/>
<path d="M49.4852 59.2177C49.4839 59.2199 49.4822 59.2206 49.4811 59.2227C49.4099 59.3507 48.3122 61.171 46.996 62.1504C45.6412 63.1673 44.8677 65.2841 44.8643 65.2838C44.8646 65.2842 47.3732 64.4637 48.1617 63.4439C49.1257 62.2198 49.4833 59.309 49.4852 59.2177Z" fill="#C49047"/>
<path d="M48.4668 60.1299C47.538 60.7448 46.6907 61.1961 45.7167 61.9832C45.1501 62.4426 44.5794 63.9727 44.6972 64.7514C44.687 65.0808 44.8641 65.2837 44.8642 65.2837C44.8677 65.2841 45.6415 63.1674 46.996 62.1503C48.3122 61.1709 49.4097 59.3506 49.4811 59.2227C49.4227 59.2856 48.9508 59.8088 48.4668 60.1299Z" fill="#FFDEAE"/>
<path d="M43.1836 58.9081C43.1844 58.9103 43.1838 58.9117 43.1844 58.914C43.2332 59.0479 43.8759 60.9809 43.6633 62.3975C43.4484 63.8654 44.5825 65.8165 44.5812 65.8171C44.5844 65.8181 45.8514 63.8939 45.6162 62.7271C45.3473 61.3223 43.2527 58.9794 43.1836 58.9081Z" fill="#C49047"/>
<path d="M43.1461 60.1264C42.9361 61.0752 42.6524 61.8581 42.5407 62.9526C42.4765 63.5912 43.2814 65.0136 44.0129 65.5179C44.2752 65.7633 44.5802 65.8172 44.5802 65.8172C44.5815 65.8168 43.4475 63.8654 43.6623 62.3975C43.8749 60.9808 43.2322 59.0479 43.1835 58.9141C43.19 58.992 43.2552 59.6315 43.1461 60.1264Z" fill="#FFDEAE"/>
<path d="M48.1209 64.0335C48.1195 64.0356 48.1179 64.0363 48.1164 64.0383C48.0349 64.1632 46.7917 65.938 45.3958 66.8685C43.9584 67.8351 43.0179 69.917 43.0146 69.9166C43.0148 69.9172 45.5927 69.1849 46.4632 68.1964C47.526 67.0104 48.1119 64.1243 48.1209 64.0335Z" fill="#C49047"/>
<path d="M47.0284 64.907C46.0489 65.4875 45.1643 65.9078 44.1264 66.6586C43.5226 67.0967 42.8317 68.6014 42.889 69.3808C42.8531 69.7085 43.0149 69.9166 43.0149 69.9166C43.0183 69.917 43.9585 67.8351 45.396 66.8686C46.7919 65.938 48.0353 64.1634 48.1167 64.0384C48.0535 64.0991 47.5389 64.6037 47.0284 64.907Z" fill="#FFDEAE"/>
<path d="M41.8213 63.5101C41.8218 63.5123 41.8211 63.5137 41.8217 63.516C41.8602 63.6509 42.3556 65.5978 42.0323 67.0014C41.7036 68.4562 42.6873 70.4379 42.6861 70.4384C42.6893 70.4394 44.109 68.566 43.9643 67.3961C43.8047 65.9878 41.8852 63.5834 41.8213 63.5101Z" fill="#C49047"/>
<path d="M41.6913 64.7223C41.4073 65.6601 41.0624 66.4301 40.8658 67.5164C40.7519 68.1502 41.4481 69.5943 42.1417 70.1211C42.3855 70.3746 42.6868 70.4385 42.6868 70.4385C42.6879 70.4379 41.7041 68.4564 42.0329 67.0015C42.3562 65.5979 41.8607 63.6511 41.8222 63.5161C41.8231 63.594 41.8386 64.2329 41.6913 64.7223Z" fill="#FFDEAE"/>
<path d="M45.3726 69.3162C45.3707 69.318 45.3686 69.3181 45.3666 69.3199C45.2423 69.4218 43.3959 70.8574 41.7247 71.4511C40.0002 72.0693 38.3366 73.8826 38.333 73.8817C38.333 73.8817 41.0444 73.7329 42.2409 72.9687C43.6931 72.0538 45.3309 69.401 45.3726 69.3162Z" fill="#C49047"/>
<path d="M44.0065 69.9167C42.8583 70.2605 41.8612 70.4718 40.5973 70.9702C39.8614 71.2611 38.649 72.5671 38.4132 73.3353C38.2571 73.645 38.3328 73.882 38.3328 73.882C38.3362 73.8829 39.9998 72.0695 41.7244 71.4513C43.3959 70.8575 45.2419 69.4219 45.3664 69.3201C45.2834 69.3646 44.6052 69.7368 44.0065 69.9167Z" fill="#FFDEAE"/>
<path d="M40.9443 74.0647C40.9417 74.0662 40.94 74.066 40.9375 74.0674C40.7903 74.1505 38.6309 75.3125 36.8539 75.6715C35.0185 76.0463 32.9522 77.6152 32.9492 77.6141C32.9492 77.6141 35.6267 77.833 36.9828 77.2412C38.6249 76.5339 40.8824 74.142 40.9443 74.0647Z" fill="#C49047"/>
<path d="M39.4611 74.4687C38.2545 74.6503 37.2284 74.7224 35.8724 75.0425C35.0824 75.2295 33.5801 76.3559 33.1621 77.0842C32.9338 77.3693 32.9494 77.6142 32.9494 77.6142C32.9524 77.6151 35.0188 76.0462 36.8542 75.6714C38.6311 75.3124 40.7907 74.1503 40.9378 74.0673C40.8455 74.0999 40.0904 74.3734 39.4611 74.4687Z" fill="#FFDEAE"/>
<path d="M39.5662 67.4233C39.5661 67.4256 39.5646 67.4267 39.5645 67.429C39.5526 67.5677 39.31 69.5559 38.4844 70.8442C37.6372 72.1803 37.8316 74.3159 37.8291 74.316C37.8307 74.3171 39.8735 72.8099 40.1713 71.6475C40.5458 70.2503 39.6024 67.5078 39.5662 67.4233Z" fill="#C49047"/>
<path d="M38.9983 68.5655C38.3842 69.4097 37.774 70.0794 37.1877 71.0889C36.8471 71.6779 36.9731 73.2289 37.4322 73.8903C37.5683 74.1889 37.8292 74.3163 37.8292 74.3163C37.8316 74.3161 37.6372 72.1805 38.4845 70.8444C39.3101 69.556 39.5526 67.5678 39.5646 67.4292C39.5372 67.5045 39.3181 68.1249 38.9983 68.5655Z" fill="#FFDEAE"/>
<path d="M35.9908 71.8283C35.9903 71.8302 35.9884 71.831 35.9881 71.8331C35.9469 71.9511 35.2982 73.6371 34.3095 74.6498C33.2921 75.7008 32.9888 77.5756 32.9863 77.5754C32.9872 77.576 35.058 76.5206 35.5705 75.5529C36.1996 74.3904 36.0036 71.9058 35.9908 71.8283Z" fill="#C49047"/>
<path d="M35.2516 72.7439C34.5401 73.3968 33.8711 73.9003 33.1492 74.7018C32.7291 75.1694 32.4962 76.5284 32.7417 77.1579C32.792 77.4333 32.9861 77.5755 32.9861 77.5755C32.9884 77.5758 33.2918 75.7008 34.3092 74.6499C35.2977 73.6373 35.9466 71.9513 35.9877 71.8332C35.9475 71.8947 35.6223 72.4029 35.2516 72.7439Z" fill="#FFDEAE"/>
<path d="M19.7178 67.4633V61.6562H24.1023V52.9756H19.7178V47.4037H20.8325C21.4525 47.4037 22.0529 47.3671 22.6168 47.295C23.1107 47.2321 23.5139 47.128 23.8156 46.9855C24.1073 46.8465 24.3217 46.6762 24.45 46.4808C24.5856 46.2739 24.6669 45.9862 24.6912 45.6256L24.7606 44.5946H31.54V61.6562H35.8267V67.4633H19.7178Z" fill="#C49047"/>
<path d="M34.7134 66.3583H20.834V62.7606H25.2185V51.8706H20.834V48.5082C21.5042 48.5082 22.1465 48.469 22.7609 48.3905C23.3752 48.3123 23.8871 48.176 24.2969 47.9823C24.7807 47.7519 25.1438 47.4519 25.3859 47.0829C25.6279 46.714 25.7675 46.2526 25.8049 45.6991H30.4267V62.7606H34.7134V66.3583Z" fill="#FFDEAE"/>
<path d="M32.0183 78.107C32.0183 79.1538 30.0205 80.0023 27.556 80.0023C25.0916 80.0023 23.0938 79.1538 23.0938 78.107C23.0938 77.0603 25.0916 76.2117 27.556 76.2117C30.0205 76.2118 32.0183 77.0603 32.0183 78.107Z" fill="#C49047"/>
<path d="M27.5565 79.6707C25.1239 79.6707 23.4287 78.8465 23.4287 78.1068C23.4287 77.3672 25.1239 76.5429 27.5565 76.5429C29.9892 76.5429 31.6845 77.3672 31.6845 78.1068C31.6845 78.8465 29.9892 79.6707 27.5565 79.6707Z" fill="#FFDEAE"/>
</svg>
