<svg width="57" height="86" viewBox="0 0 57 86" fill="none" xmlns="http://www.w3.org/2000/svg">
<path d="M45.9379 0L36.2294 26.867H30.835L40.515 0.0219437V0H45.9379Z" fill="#9871F3"/>
<path d="M40.5146 0V0.0219437L30.8345 26.867H25.5078L35.1879 0.0219437V0H40.5146Z" fill="#F0F0F0"/>
<path d="M35.1883 0V0.0219437L25.5082 26.867H20.0664L29.7749 0H35.1883Z" fill="#6F9DE2"/>
<path d="M40.022 27.267C40.7349 28.8427 41.1308 30.5387 41.194 32.2597C37.3784 30.3277 33.0549 29.2381 28.4759 29.2381C23.6414 29.2381 19.0939 30.4527 15.127 32.5879C15.1475 30.7543 15.5497 28.9427 16.3068 27.267L16.6602 26.487C17.0545 25.6132 17.8748 25.002 18.8322 24.8692L19.8748 24.7238C25.3733 23.961 30.9555 23.961 36.4557 24.7238L37.4967 24.8692C38.4542 25.0021 39.2744 25.6132 39.6688 26.487L40.022 27.267ZM37.2158 28.0345V27.0091C37.2158 26.7121 36.9729 26.4714 36.6733 26.4714H19.6554C19.3557 26.4714 19.1128 26.7122 19.1128 27.0091V28.0345C19.1128 28.333 19.3557 28.5738 19.6554 28.5738H36.6733C36.9729 28.5738 37.2158 28.3331 37.2158 28.0345Z" fill="#F69C62"/>
<path d="M10.3564 0L20.0649 26.867H25.4594L15.7794 0.0219437V0H10.3564Z" fill="#6F9DE2"/>
<path d="M15.7793 0V0.0219437L25.4594 26.867H30.786L21.1059 0.0219437V0H15.7793Z" fill="#F0F0F0"/>
<path d="M21.1064 0V0.0219437L30.7865 26.867H36.2283L26.5199 0H21.1064Z" fill="#9871F3"/>
<path d="M41.3842 32.2597C50.4555 36.849 56.667 46.198 56.667 56.9851C56.667 72.3099 44.1303 84.7337 28.6663 84.7337C13.2021 84.7337 0.666992 72.31 0.666992 56.9851C0.666992 46.4512 6.58991 37.2882 15.3172 32.5879C19.2842 30.4527 23.8316 29.2382 28.6662 29.2382C33.2452 29.2382 37.5686 30.3276 41.3842 32.2597Z" fill="#E68A54"/>
<path d="M28.6662 82.5223C21.7831 82.5223 15.3123 79.8659 10.4455 75.0425C5.57866 70.2192 2.89844 63.8062 2.89844 56.9851C2.89844 47.6144 8.06503 39.0108 16.3819 34.5316C20.1279 32.5153 24.3758 31.4495 28.6662 31.4495C32.7891 31.4495 36.7267 32.3848 40.3698 34.2295C44.5362 36.3373 48.0509 39.5324 50.5345 43.4695C53.0865 47.5155 54.4355 52.1891 54.4355 56.9852C54.4355 63.8062 51.755 70.2192 46.8878 75.0426C42.0205 79.8659 35.5493 82.5223 28.6662 82.5223Z" fill="#F69C62"/>
<path d="M24.0915 32.7095C24.0892 32.7112 24.0893 32.7129 24.0872 32.7145C23.9667 32.8215 22.2591 34.3778 21.5891 35.7318C20.8931 37.1343 18.7299 38.5401 18.7296 38.5405C18.7258 38.5408 18.8009 36.3935 19.7084 35.4084C20.7909 34.2198 23.9912 32.7533 24.0915 32.7095Z" fill="#BC7546"/>
<path d="M23.3954 33.8308C23.0088 34.7613 22.7846 35.5634 22.2234 36.5926C21.8962 37.1931 20.3415 38.2271 19.4019 38.4503C19.0263 38.589 18.7295 38.5407 18.7295 38.5407C18.7299 38.54 20.893 37.1343 21.589 35.7318C22.2589 34.3778 23.9663 32.8216 24.0871 32.7146C24.035 32.7835 23.5979 33.3456 23.3954 33.8308Z" fill="#F9C8A9"/>
<path d="M26.6299 37.1515C26.6271 37.1519 26.6257 37.1531 26.6229 37.1534C26.4537 37.1762 24.0235 37.523 22.4744 38.2527C20.8693 39.0101 18.2148 38.959 18.2148 38.959C18.2127 38.958 19.9889 37.2761 21.4074 36.9705C23.1112 36.5998 26.5226 37.1347 26.6299 37.1515Z" fill="#BC7546"/>
<path d="M25.2556 37.6891C24.2489 38.2366 23.456 38.765 22.2403 39.2909C21.5312 39.5983 19.6025 39.5851 18.7609 39.2521C18.3842 39.1587 18.2148 38.9585 18.2148 38.9585C18.2148 38.9585 20.8694 39.01 22.4745 38.2526C24.0233 37.523 26.4537 37.1762 26.6229 37.1533C26.5318 37.1815 25.7809 37.4041 25.2556 37.6891Z" fill="#F9C8A9"/>
<path d="M18.859 35.7625C18.8573 35.7644 18.8575 35.766 18.8557 35.7679C18.755 35.8874 17.3451 37.6215 16.9404 39.0311C16.518 40.491 14.6321 42.1373 14.6322 42.1378C14.6284 42.1383 14.2759 40.0239 14.991 38.9468C15.8402 37.6484 18.766 35.8175 18.859 35.7625Z" fill="#BC7546"/>
<path d="M18.3788 36.9461C18.1728 37.905 18.105 38.7185 17.7449 39.7966C17.5343 40.4255 16.1823 41.6312 15.2868 41.9663C14.9382 42.1488 14.6318 42.1379 14.6318 42.1379C14.6315 42.1374 16.5177 40.4911 16.94 39.0313C17.3444 37.6216 18.7547 35.8876 18.8553 35.7681C18.8163 35.842 18.487 36.4461 18.3788 36.9461Z" fill="#F9C8A9"/>
<path d="M22.2651 39.8041C22.2626 39.8048 22.2611 39.8061 22.2585 39.8068C22.0937 39.8498 19.7283 40.4871 18.3216 41.3935C16.8649 42.3336 14.1997 42.6117 14.1992 42.6115C14.1965 42.611 15.6399 40.7421 17.0012 40.2674C18.6353 39.6932 22.1554 39.8002 22.2651 39.8041Z" fill="#BC7546"/>
<path d="M20.9942 40.4996C20.0936 41.1599 19.4037 41.7757 18.2916 42.4412C17.6434 42.8298 15.7125 43.0544 14.8041 42.8318C14.409 42.7868 14.1992 42.6114 14.1992 42.6114C14.1998 42.6117 16.865 42.3336 18.3216 41.3936C19.7282 40.4871 22.0937 39.8498 22.2585 39.8068C22.1728 39.8455 21.4647 40.1555 20.9942 40.4996Z" fill="#F9C8A9"/>
<path d="M13.9694 39.6292C13.9681 39.6314 13.9688 39.6328 13.9677 39.6351C13.9035 39.7687 13.0331 41.7007 13.0652 43.1292C13.093 44.6089 11.7404 46.555 11.7416 46.5556C11.7382 46.5564 10.7362 44.5988 11.1114 43.4292C11.5491 42.0202 13.8928 39.6995 13.9694 39.6292Z" fill="#BC7546"/>
<path d="M13.8531 40.8539C13.9407 41.811 14.1212 42.6027 14.0946 43.7056C14.0781 44.3489 13.1133 45.7675 12.3341 46.2634C12.0468 46.5063 11.7412 46.5556 11.7412 46.5556C11.7404 46.555 13.0929 44.6089 13.065 43.1291C13.0327 41.7006 13.9032 39.7687 13.9675 39.635C13.9513 39.7132 13.808 40.3547 13.8531 40.8539Z" fill="#F9C8A9"/>
<path d="M18.5608 42.838C18.5583 42.8392 18.5573 42.8407 18.555 42.8418C18.4051 42.9147 16.2606 43.9823 15.1501 45.1247C14.0002 46.3084 11.461 47.0939 11.461 47.0939C11.4569 47.0939 12.3025 45.0205 13.5028 44.3012C14.9413 43.4325 18.4517 42.8548 18.5608 42.838Z" fill="#BC7546"/>
<path d="M17.5161 43.7503C16.8267 44.5578 16.3333 45.2822 15.4407 46.1361C14.9205 46.6345 13.0886 47.2243 12.125 47.1877C11.7218 47.2213 11.4608 47.0941 11.4609 47.094C11.4616 47.0939 14.0007 46.3085 15.1507 45.1247C16.2611 43.9823 18.4057 42.9147 18.5555 42.8419C18.4825 42.8955 17.8765 43.3294 17.5161 43.7503Z" fill="#F9C8A9"/>
<path d="M10.4376 43.9567C10.4368 43.959 10.4379 43.9603 10.4369 43.9626C10.3934 44.1006 9.82864 46.091 10.0906 47.5C10.355 48.9601 9.3155 51.0128 9.31682 51.0133C9.3138 51.0142 7.99439 49.1724 8.1812 47.9813C8.39148 46.5471 10.3714 44.0333 10.4376 43.9567Z" fill="#BC7546"/>
<path d="M10.5161 45.1775C10.757 46.1147 11.0641 46.8802 11.2138 47.9732C11.3001 48.6108 10.5616 50.1048 9.86222 50.6688C9.61385 50.936 9.31641 51.0136 9.31641 51.0136C9.31478 51.0132 10.3545 48.9604 10.0901 47.5004C9.82815 46.0912 10.3932 44.101 10.4365 43.963C10.4327 44.0415 10.3912 44.6886 10.5161 45.1775Z" fill="#F9C8A9"/>
<path d="M15.5507 46.6965C15.5483 46.6979 15.548 46.6996 15.5455 46.7009C15.4067 46.7868 13.4276 48.0433 12.499 49.2775C11.5369 50.5564 9.1249 51.5722 9.12404 51.5726C9.12033 51.5727 9.63092 49.4419 10.7182 48.6178C12.0193 47.623 15.4442 46.7232 15.5507 46.6965Z" fill="#BC7546"/>
<path d="M14.6482 47.6966C14.0857 48.5598 13.7073 49.3225 12.9506 50.2512C12.5097 50.7932 10.7729 51.5483 9.80332 51.6029C9.40561 51.6741 9.12402 51.5727 9.12402 51.5727C9.1248 51.5724 11.5368 50.5565 12.4989 49.2776C13.4274 48.0434 15.4066 46.787 15.5455 46.701C15.481 46.7607 14.9422 47.2466 14.6482 47.6966Z" fill="#F9C8A9"/>
<path d="M7.76043 48.6792C7.7605 48.6815 7.76151 48.6827 7.76128 48.6851C7.75292 48.8259 7.6998 50.8505 8.31963 52.1825C8.95339 53.5635 8.45318 55.7289 8.45535 55.7293C8.45341 55.7302 6.67475 54.1401 6.55289 52.9509C6.39039 51.5204 7.71273 48.7637 7.76043 48.6792Z" fill="#BC7546"/>
<path d="M8.14964 49.8542C8.62717 50.7284 9.12615 51.4257 9.55266 52.4677C9.8001 53.0755 9.45147 54.648 8.90597 55.3076C8.72945 55.6072 8.45561 55.7293 8.45561 55.7293C8.45329 55.729 8.95373 53.5634 8.31989 52.1825C7.69998 50.8504 7.75317 48.8259 7.76154 48.6851C7.77733 48.7623 7.90112 49.398 8.14964 49.8542Z" fill="#F9C8A9"/>
<path d="M13.5226 50.5481C13.5207 50.5497 13.5207 50.5514 13.5186 50.5531C13.4025 50.6583 11.759 52.1907 11.1555 53.5395C10.529 54.9368 8.41017 56.3046 8.40971 56.3051C8.40584 56.3056 8.36133 54.1467 9.22689 53.1736C10.2589 52 13.4236 50.5902 13.5226 50.5481Z" fill="#BC7546"/>
<path d="M12.8812 51.6633C12.5423 52.5927 12.3608 53.3956 11.8495 54.4197C11.5512 55.0171 10.0304 56.0243 9.08821 56.2288C8.7145 56.3603 8.40992 56.3052 8.41016 56.3052C8.41039 56.3049 10.5294 54.937 11.156 53.5397C11.7593 52.1907 13.4029 50.6585 13.5191 50.5532C13.47 50.6215 13.0587 51.1788 12.8812 51.6633Z" fill="#F9C8A9"/>
<path d="M6.23631 53.5476C6.23677 53.5499 6.23824 53.551 6.23855 53.5532C6.26418 53.6919 6.70733 55.6778 7.64652 56.8901C8.61057 58.1477 8.64835 60.3441 8.65137 60.3442C8.65021 60.3451 6.50388 59.0483 6.08952 57.9032C5.57483 56.5269 6.20852 53.637 6.23631 53.5476Z" fill="#BC7546"/>
<path d="M6.90828 54.6382C7.59462 55.4222 8.25858 56.0303 8.93415 56.9877C9.32683 57.5462 9.36686 59.1381 8.99137 59.8649C8.89072 60.1845 8.65118 60.3445 8.65118 60.3445C8.64816 60.3444 8.61022 58.148 7.64626 56.8904C6.70707 55.6781 6.26391 53.6921 6.23828 53.5535C6.27297 53.6264 6.55083 54.2291 6.90828 54.6382Z" fill="#F9C8A9"/>
<path d="M12.3937 54.5251C12.3921 54.5271 12.3924 54.5287 12.3908 54.5307C12.3011 54.6505 11.0449 56.3918 10.7783 57.802C10.499 59.2629 8.74762 60.915 8.74778 60.9156C8.74398 60.9163 8.16829 58.8065 8.78495 57.7266C9.51557 56.4252 12.305 54.5806 12.3937 54.5251Z" fill="#BC7546"/>
<path d="M12.027 55.7114C11.9163 56.6712 11.9315 57.4845 11.676 58.5633C11.5269 59.1926 10.274 60.4027 9.3964 60.7415C9.06024 60.9253 8.74707 60.9159 8.74707 60.9159C8.74684 60.9155 10.4982 59.2632 10.7777 57.8023C11.0443 56.3919 12.3003 54.651 12.3902 54.531C12.358 54.605 12.0856 55.2108 12.027 55.7114Z" fill="#F9C8A9"/>
<path d="M6.16602 59.2174C6.16733 59.2196 6.16896 59.2203 6.17012 59.2224C6.24142 59.3504 7.33902 61.1707 8.65517 62.1501C10.01 63.167 10.7835 65.2838 10.7869 65.2834C10.7866 65.2839 8.27797 64.4634 7.48944 63.4436C6.52548 62.2195 6.1678 59.3087 6.16602 59.2174Z" fill="#BC7546"/>
<path d="M7.18429 60.1298C8.11303 60.7447 8.96024 61.196 9.93435 61.9831C10.5009 62.4425 11.0717 63.9726 10.9537 64.7513C10.964 65.0807 10.787 65.2836 10.7868 65.2836C10.7833 65.284 10.0094 63.1673 8.65497 62.1502C7.33882 61.1708 6.24123 59.3504 6.16992 59.2225C6.2283 59.2855 6.70026 59.8086 7.18429 60.1298Z" fill="#F9C8A9"/>
<path d="M12.4696 58.9078C12.4688 58.9101 12.4695 58.9114 12.4687 58.9137C12.4199 59.0477 11.7772 60.9806 11.9898 62.3972C12.2048 63.8652 11.0706 65.8163 11.0719 65.8168C11.0687 65.8178 9.80179 63.8936 10.0369 62.7269C10.3058 61.322 12.4005 58.9791 12.4696 58.9078Z" fill="#BC7546"/>
<path d="M12.5063 60.1261C12.7164 61.0748 13.0002 61.8577 13.1118 62.9523C13.176 63.5908 12.3711 65.0133 11.6395 65.5175C11.3773 65.7629 11.0723 65.8168 11.0723 65.8168C11.071 65.8164 12.205 63.865 11.9902 62.3972C11.7776 60.9805 12.4204 59.0476 12.4691 58.9137C12.4625 58.9916 12.3973 59.6311 12.5063 60.1261Z" fill="#F9C8A9"/>
<path d="M7.53223 64.0338C7.53362 64.0359 7.53525 64.0367 7.53664 64.0386C7.61816 64.1636 8.86138 65.9383 10.2573 66.8688C11.6947 67.8354 12.6352 69.9173 12.6384 69.9169C12.6383 69.9175 10.0604 69.1852 9.18988 68.1967C8.12721 67.0107 7.54113 64.1247 7.53223 64.0338Z" fill="#BC7546"/>
<path d="M8.62549 64.9073C9.60494 65.4878 10.4895 65.9082 11.5274 66.6589C12.1312 67.097 12.8222 68.6016 12.7648 69.3811C12.8006 69.7088 12.6389 69.9169 12.6389 69.9169C12.6354 69.9173 11.6953 67.8354 10.2577 66.8689C8.86178 65.9383 7.61848 64.1637 7.53711 64.0387C7.60036 64.0995 8.1149 64.6041 8.62549 64.9073Z" fill="#F9C8A9"/>
<path d="M13.8302 63.5103C13.8296 63.5124 13.8303 63.5139 13.8297 63.5162C13.7912 63.651 13.2959 65.598 13.6191 67.0015C13.9479 68.4564 12.9642 70.438 12.9653 70.4385C12.9621 70.4395 11.5425 68.5661 11.6871 67.3962C11.8467 65.988 13.7662 63.5835 13.8302 63.5103Z" fill="#BC7546"/>
<path d="M13.9603 64.7223C14.2444 65.6601 14.5893 66.4301 14.7859 67.5164C14.8997 68.1502 14.2036 69.5943 13.51 70.1211C13.2662 70.3746 12.9648 70.4385 12.9648 70.4385C12.9637 70.4379 13.9475 68.4564 13.6187 67.0015C13.2954 65.5979 13.7909 63.6511 13.8293 63.5161C13.8285 63.594 13.813 64.2329 13.9603 64.7223Z" fill="#F9C8A9"/>
<path d="M10.2812 69.3159C10.2833 69.3177 10.2854 69.3178 10.2874 69.3196C10.4116 69.4215 12.2581 70.8571 13.9292 71.4508C15.6538 72.069 17.3173 73.8823 17.3209 73.8814C17.3214 73.8815 14.6095 73.7326 13.413 72.9684C11.9609 72.0535 10.323 69.4007 10.2812 69.3159Z" fill="#BC7546"/>
<path d="M11.6469 69.9163C12.795 70.2601 13.7922 70.4715 15.0561 70.9699C15.792 71.2608 17.0044 72.5668 17.2401 73.335C17.3963 73.6447 17.3206 73.8817 17.3206 73.8817C17.3172 73.8826 15.6535 72.0692 13.929 71.451C12.2575 70.8572 10.4116 69.4216 10.2871 69.3198C10.3699 69.3642 11.0482 69.7365 11.6469 69.9163Z" fill="#F9C8A9"/>
<path d="M14.709 74.0647C14.7115 74.0662 14.7132 74.066 14.7158 74.0674C14.863 74.1505 17.0224 75.3125 18.7994 75.6715C20.6348 76.0463 22.701 77.6152 22.7041 77.6141C22.7041 77.6141 20.0265 77.833 18.6704 77.2412C17.0284 76.5339 14.7709 74.142 14.709 74.0647Z" fill="#BC7546"/>
<path d="M16.1924 74.4688C17.3991 74.6503 18.4251 74.7224 19.7811 75.0426C20.5711 75.2296 22.0734 76.356 22.4914 77.0842C22.7196 77.3694 22.7041 77.6142 22.7041 77.6142C22.7012 77.6151 20.6347 76.0462 18.7994 75.6715C17.0225 75.3124 14.8628 74.1504 14.7158 74.0674C14.808 74.0999 15.563 74.3735 16.1924 74.4688Z" fill="#F9C8A9"/>
<path d="M16.0884 67.4233C16.0885 67.4256 16.0899 67.4268 16.0901 67.4291C16.102 67.5678 16.3446 69.5559 17.1701 70.8443C18.0173 72.1804 17.8229 74.316 17.8255 74.3161C17.8238 74.3172 15.7811 72.81 15.4832 71.6476C15.1088 70.2504 16.0522 67.5079 16.0884 67.4233Z" fill="#BC7546"/>
<path d="M16.6561 68.5655C17.2703 69.4097 17.8804 70.0794 18.4667 71.0889C18.8073 71.6779 18.6813 73.2289 18.2222 73.8903C18.0862 74.1889 17.8252 74.3163 17.8252 74.3163C17.8228 74.3161 18.0172 72.1805 17.1699 70.8444C16.3442 69.556 16.1018 67.5678 16.0898 67.4292C16.1171 67.5045 16.3362 68.1249 16.6561 68.5655Z" fill="#F9C8A9"/>
<path d="M19.6637 71.8284C19.6643 71.8303 19.6662 71.8311 19.6664 71.8331C19.7076 71.9511 20.3563 73.6372 21.3449 74.6499C22.3625 75.7009 22.6657 77.5757 22.6681 77.5755C22.6673 77.5761 20.5964 76.5207 20.084 75.553C19.4549 74.3905 19.651 71.9059 19.6637 71.8284Z" fill="#BC7546"/>
<path d="M20.4021 72.7437C21.1136 73.3966 21.7825 73.9002 22.5046 74.7016C22.9246 75.1692 23.1575 76.5282 22.912 77.1577C22.8617 77.4331 22.6676 77.5753 22.6676 77.5753C22.6654 77.5756 22.362 75.7006 21.3445 74.6497C20.3561 73.6371 19.7071 71.9511 19.666 71.833C19.7062 71.8945 20.0314 72.4028 20.4021 72.7437Z" fill="#F9C8A9"/>
<path d="M32.2295 32.7095C32.2317 32.7112 32.2317 32.7129 32.2337 32.7145C32.3542 32.8215 34.0618 34.3778 34.7318 35.7318C35.4278 37.1343 37.5911 38.5401 37.5913 38.5405C37.5951 38.5408 37.52 36.3935 36.6125 35.4084C35.53 34.2198 32.3298 32.7533 32.2295 32.7095Z" fill="#BC7546"/>
<path d="M32.9252 33.8308C33.3117 34.7613 33.5361 35.5634 34.0971 36.5926C34.4243 37.1931 35.9791 38.2271 36.9187 38.4503C37.2942 38.589 37.591 38.5406 37.591 38.5406C37.5906 38.54 35.4275 37.1343 34.7315 35.7318C34.0615 34.3778 32.3541 32.8216 32.2334 32.7146C32.2857 32.7835 32.7228 33.3456 32.9252 33.8308Z" fill="#F9C8A9"/>
<path d="M29.6914 37.1515C29.6942 37.1519 29.6957 37.1531 29.6984 37.1534C29.8675 37.1762 32.2977 37.523 33.8468 38.2527C35.452 39.0101 38.1064 38.959 38.1064 38.959C38.1086 38.958 36.3324 37.2761 34.9138 36.9705C33.21 36.5998 29.7987 37.1347 29.6914 37.1515Z" fill="#BC7546"/>
<path d="M31.0654 37.6891C32.0721 38.2366 32.8651 38.765 34.0807 39.2909C34.7898 39.5983 36.7186 39.5851 37.5602 39.2521C37.9367 39.1587 38.1062 38.9585 38.1062 38.9585C38.1062 38.9585 35.4517 39.01 33.8467 38.2526C32.2978 37.523 29.8674 37.1762 29.6982 37.1533C29.7892 37.1815 30.54 37.4041 31.0654 37.6891Z" fill="#F9C8A9"/>
<path d="M37.4629 35.7623C37.4646 35.7642 37.4644 35.7659 37.4662 35.7678C37.5669 35.8872 38.9769 37.6213 39.3815 39.031C39.8039 40.4909 41.6898 42.1372 41.6897 42.1376C41.6935 42.1382 42.0461 40.0238 41.3309 38.9467C40.4818 37.6483 37.5558 35.8173 37.4629 35.7623Z" fill="#BC7546"/>
<path d="M37.9423 36.946C38.1484 37.9049 38.2161 38.7184 38.5763 39.7965C38.7867 40.4254 40.1387 41.6311 41.0343 41.9662C41.3829 42.1487 41.6893 42.1378 41.6893 42.1378C41.6896 42.1373 39.8034 40.491 39.3811 39.0311C38.9767 37.6215 37.5664 35.8875 37.4658 35.7679C37.5049 35.8418 37.834 36.4459 37.9423 36.946Z" fill="#F9C8A9"/>
<path d="M34.0557 39.8041C34.0581 39.8048 34.0597 39.8061 34.0623 39.8068C34.2271 39.8498 36.5925 40.4871 37.9992 41.3935C39.4559 42.3336 42.1211 42.6117 42.1216 42.6115C42.1242 42.611 40.6809 40.7421 39.3197 40.2674C37.6855 39.6932 34.1654 39.8002 34.0557 39.8041Z" fill="#BC7546"/>
<path d="M35.3267 40.4996C36.2274 41.1599 36.9172 41.7757 38.0294 42.4412C38.6775 42.8298 40.6085 43.0544 41.5169 42.8318C41.912 42.7868 42.1218 42.6114 42.1218 42.6114C42.1212 42.6117 39.456 42.3336 37.9993 41.3936C36.5928 40.4871 34.2273 39.8498 34.0625 39.8068C34.1481 39.8455 34.8562 40.1555 35.3267 40.4996Z" fill="#F9C8A9"/>
<path d="M42.3516 39.6292C42.3528 39.6314 42.3521 39.6328 42.3532 39.6351C42.4175 39.7687 43.2879 41.7007 43.2557 43.1292C43.228 44.6089 44.5805 46.555 44.5793 46.5556C44.5828 46.5564 45.5847 44.5988 45.2095 43.4292C44.7719 42.0202 42.4282 39.6995 42.3516 39.6292Z" fill="#BC7546"/>
<path d="M42.4678 40.8539C42.38 41.811 42.1997 42.6027 42.2263 43.7056C42.2427 44.3489 43.2075 45.7675 43.9868 46.2634C44.2741 46.5063 44.5796 46.5556 44.5796 46.5556C44.5804 46.555 43.2279 44.6089 43.2557 43.1291C43.288 41.7006 42.4176 39.7687 42.3532 39.635C42.3695 39.7132 42.5127 40.3547 42.4678 40.8539Z" fill="#F9C8A9"/>
<path d="M37.7588 42.838C37.7612 42.8392 37.7623 42.8407 37.7646 42.8418C37.9144 42.9147 40.059 43.9823 41.1694 45.1247C42.3194 46.3084 44.8586 47.0939 44.8591 47.0939C44.8627 47.0939 44.0171 45.0205 42.8168 44.3012C41.3783 43.4325 37.8679 42.8548 37.7588 42.838Z" fill="#BC7546"/>
<path d="M38.8041 43.7503C39.4935 44.5578 39.9868 45.2822 40.8794 46.1361C41.3996 46.6345 43.2316 47.2243 44.1951 47.1877C44.5983 47.2213 44.8594 47.0941 44.8592 47.094C44.8585 47.0939 42.3195 46.3085 41.1695 45.1247C40.0591 43.9823 37.9145 42.9147 37.7646 42.8419C37.8377 42.8955 38.4437 43.3294 38.8041 43.7503Z" fill="#F9C8A9"/>
<path d="M45.8838 43.9565C45.8846 43.9588 45.8836 43.9602 45.8844 43.9625C45.9279 44.1005 46.4928 46.0909 46.2308 47.4999C45.9663 48.96 47.0059 51.0127 47.0045 51.0132C47.0076 51.0141 48.327 49.1723 48.1401 47.9811C47.93 46.547 45.9501 44.0332 45.8838 43.9565Z" fill="#BC7546"/>
<path d="M45.8051 45.1774C45.5642 46.1146 45.2572 46.8801 45.1075 47.9731C45.0211 48.6106 45.7597 50.1047 46.459 50.6687C46.7074 50.9359 47.0048 51.0135 47.0048 51.0135C47.0064 51.0131 45.9668 48.9603 46.2311 47.5003C46.4931 46.0911 45.928 44.1008 45.8847 43.9629C45.8886 44.0414 45.9299 44.6885 45.8051 45.1774Z" fill="#F9C8A9"/>
<path d="M40.7705 46.6963C40.7729 46.6977 40.7732 46.6994 40.7757 46.7007C40.9145 46.7865 42.8937 48.043 43.8223 49.2773C44.7844 50.5562 47.1963 51.572 47.1972 51.5724C47.2009 51.5724 46.6903 49.4417 45.603 48.6175C44.3021 47.6227 40.877 46.723 40.7705 46.6963Z" fill="#BC7546"/>
<path d="M41.6727 47.6965C42.2352 48.5597 42.6136 49.3224 43.3703 50.2511C43.8112 50.793 45.5481 51.5481 46.5176 51.6028C46.9154 51.674 47.197 51.5726 47.197 51.5726C47.196 51.5723 44.784 50.5563 43.822 49.2775C42.8935 48.0433 40.9143 46.7869 40.7754 46.7009C40.84 46.7606 41.3787 47.2464 41.6727 47.6965Z" fill="#F9C8A9"/>
<path d="M48.5591 48.6793C48.559 48.6816 48.558 48.6829 48.5582 48.6852C48.5665 48.826 48.6197 50.8507 47.9998 52.1827C47.3661 53.5636 47.8663 55.729 47.8641 55.7294C47.8661 55.7303 49.6447 54.1402 49.7666 52.951C49.9291 51.5205 48.6068 48.7639 48.5591 48.6793Z" fill="#BC7546"/>
<path d="M48.1705 49.8544C47.693 50.7286 47.194 51.4258 46.7676 52.4678C46.5201 53.0756 46.8688 54.6481 47.4143 55.3077C47.5908 55.6073 47.8646 55.7295 47.8646 55.7295C47.867 55.7291 47.3665 53.5636 48.0003 52.1826C48.6203 50.8505 48.567 48.826 48.5587 48.6852C48.5429 48.7624 48.419 49.3982 48.1705 49.8544Z" fill="#F9C8A9"/>
<path d="M42.7979 50.548C42.7998 50.5496 42.7998 50.5513 42.8019 50.553C42.918 50.6581 44.5614 52.1905 45.165 53.5394C45.7915 54.9367 47.9103 56.3045 47.9108 56.305C47.9147 56.3055 47.9592 54.1466 47.0936 53.1735C46.0617 51.9999 42.897 50.5901 42.7979 50.548Z" fill="#BC7546"/>
<path d="M43.4396 51.6632C43.7786 52.5926 43.9601 53.3955 44.4713 54.4196C44.7696 55.017 46.2904 56.0242 47.2325 56.2287C47.6063 56.3602 47.9108 56.3051 47.9108 56.3051C47.9104 56.3047 45.7914 54.9369 45.1649 53.5396C44.5615 52.1906 42.918 50.6584 42.8018 50.5531C42.8508 50.6214 43.262 51.1787 43.4396 51.6632Z" fill="#F9C8A9"/>
<path d="M50.084 53.5476C50.0835 53.5499 50.0821 53.551 50.0818 53.5532C50.0561 53.6919 49.613 55.6778 48.6738 56.8901C47.7097 58.1477 47.672 60.3441 47.6689 60.3442C47.67 60.3451 49.8164 59.0483 50.2308 57.9032C50.7455 56.5269 50.1117 53.637 50.084 53.5476Z" fill="#BC7546"/>
<path d="M49.412 54.6381C48.7257 55.4221 48.0618 56.0302 47.3862 56.9876C46.9935 57.5461 46.9535 59.138 47.329 59.8647C47.4296 60.1844 47.6691 60.3443 47.6691 60.3443C47.6722 60.3443 47.71 58.1478 48.6741 56.8903C49.6132 55.678 50.0564 53.692 50.082 53.5533C50.0473 53.6262 49.7695 54.229 49.412 54.6381Z" fill="#F9C8A9"/>
<path d="M43.9277 54.5253C43.9293 54.5272 43.929 54.5288 43.9306 54.5308C44.0203 54.6506 45.2766 56.3919 45.543 57.8021C45.8225 59.263 47.5738 60.9152 47.5738 60.9152C47.5773 60.9164 48.1531 58.8066 47.5365 57.7268C46.8059 56.4253 44.0165 54.5807 43.9277 54.5253Z" fill="#BC7546"/>
<path d="M44.2938 55.7113C44.4046 56.6711 44.3893 57.4844 44.6448 58.5632C44.7939 59.1924 46.0467 60.4026 46.9244 60.7414C47.2605 60.9252 47.5737 60.9158 47.5737 60.9158C47.5739 60.9153 45.8226 59.2631 45.5431 57.8022C45.2765 56.3918 44.0205 54.6509 43.9307 54.5309C43.9628 54.6049 44.2352 55.2107 44.2938 55.7113Z" fill="#F9C8A9"/>
<path d="M50.1541 59.2175C50.1528 59.2197 50.1512 59.2204 50.15 59.2225C50.0788 59.3506 48.9811 61.1708 47.665 62.1502C46.3102 63.1672 45.5367 65.284 45.5332 65.2836C45.5336 65.284 48.0422 64.4636 48.8307 63.4437C49.7946 62.2196 50.1522 59.3088 50.1541 59.2175Z" fill="#BC7546"/>
<path d="M49.1357 60.1298C48.207 60.7447 47.3597 61.196 46.3856 61.9831C45.8191 62.4425 45.2483 63.9726 45.3662 64.7513C45.356 65.0807 45.533 65.2836 45.5332 65.2836C45.5367 65.284 46.3104 63.1673 47.6649 62.1502C48.9811 61.1708 50.0786 59.3504 50.15 59.2225C50.0916 59.2855 49.6197 59.8086 49.1357 60.1298Z" fill="#F9C8A9"/>
<path d="M43.8506 58.908C43.8514 58.9102 43.8507 58.9116 43.8514 58.9139C43.9002 59.0478 44.5429 60.9807 44.3303 62.3973C44.1153 63.8653 45.2495 65.8164 45.2482 65.817C45.2514 65.818 46.5183 63.8937 46.2832 62.727C46.0143 61.3221 43.9197 58.9792 43.8506 58.908Z" fill="#BC7546"/>
<path d="M43.8141 60.1262C43.6041 61.075 43.3203 61.8578 43.2087 62.9524C43.1445 63.5909 43.9494 65.0134 44.6809 65.5176C44.9431 65.7631 45.2482 65.8169 45.2482 65.8169C45.2495 65.8165 44.1155 63.8651 44.3303 62.3973C44.5429 60.9806 43.9002 59.0477 43.8514 58.9138C43.858 58.9918 43.9232 59.6313 43.8141 60.1262Z" fill="#F9C8A9"/>
<path d="M48.7879 64.0338C48.7865 64.0359 48.7849 64.0367 48.7834 64.0386C48.702 64.1636 47.4588 65.9383 46.0628 66.8688C44.6254 67.8354 43.6849 69.9173 43.6816 69.9169C43.6818 69.9175 46.2597 69.1852 47.1302 68.1967C48.1929 67.0107 48.779 64.1247 48.7879 64.0338Z" fill="#BC7546"/>
<path d="M47.6953 64.9072C46.7159 65.4877 45.8313 65.9081 44.7934 66.6588C44.1896 67.0968 43.4987 68.6015 43.556 69.381C43.5201 69.7087 43.6819 69.9168 43.6819 69.9168C43.6853 69.9172 44.6255 67.8353 46.063 66.8687C47.4589 65.9382 48.7023 64.1636 48.7836 64.0386C48.7204 64.0993 48.2059 64.604 47.6953 64.9072Z" fill="#F9C8A9"/>
<path d="M42.4902 63.5103C42.4908 63.5124 42.4901 63.5139 42.4906 63.5162C42.5292 63.651 43.0245 65.598 42.7012 67.0015C42.3725 68.4564 43.3562 70.438 43.3549 70.4385C43.3582 70.4395 44.7779 68.5661 44.6332 67.3962C44.4736 65.988 42.5541 63.5835 42.4902 63.5103Z" fill="#BC7546"/>
<path d="M42.3592 64.7223C42.0753 65.6601 41.7304 66.4301 41.5338 67.5164C41.4199 68.1502 42.1161 69.5943 42.8097 70.1211C43.0535 70.3746 43.3547 70.4385 43.3547 70.4385C43.3559 70.4379 42.3721 68.4564 42.7008 67.0015C43.0241 65.5979 42.5286 63.6511 42.4902 63.5161C42.4912 63.594 42.5066 64.2329 42.3592 64.7223Z" fill="#F9C8A9"/>
<path d="M46.0396 69.3159C46.0377 69.3177 46.0356 69.3178 46.0336 69.3196C45.9093 69.4215 44.0628 70.8571 42.3916 71.4508C40.6672 72.069 39.0036 73.8823 39 73.8814C39 73.8814 41.7113 73.7326 42.9079 72.9684C44.3601 72.0535 45.998 69.4007 46.0396 69.3159Z" fill="#BC7546"/>
<path d="M44.6735 69.9162C43.5253 70.26 42.5282 70.4714 41.2642 70.9698C40.5284 71.2607 39.316 72.5667 39.0802 73.3349C38.9241 73.6446 38.9998 73.8816 38.9998 73.8816C39.0032 73.8824 40.6668 72.0691 42.3914 71.4509C44.0629 70.8571 45.9089 69.4215 46.0334 69.3197C45.9504 69.3641 45.2721 69.7364 44.6735 69.9162Z" fill="#F9C8A9"/>
<path d="M41.6113 74.0646C41.6087 74.066 41.607 74.0659 41.6045 74.0673C41.4573 74.1504 39.2979 75.3124 37.5209 75.6714C35.6855 76.0462 33.6192 77.6151 33.6162 77.614C33.6162 77.614 36.2937 77.8329 37.6498 77.2411C39.2918 76.5338 41.5493 74.1418 41.6113 74.0646Z" fill="#BC7546"/>
<path d="M40.1282 74.4687C38.9215 74.6502 37.8955 74.7223 36.5394 75.0425C35.7495 75.2295 34.2471 76.3558 33.8291 77.0841C33.6008 77.3693 33.6164 77.6141 33.6164 77.6141C33.6194 77.615 35.6858 76.0461 37.5212 75.6714C39.2981 75.3123 41.4577 74.1503 41.6048 74.0673C41.5126 74.0998 40.7576 74.3734 40.1282 74.4687Z" fill="#F9C8A9"/>
<path d="M40.2331 67.4233C40.233 67.4256 40.2315 67.4268 40.2315 67.4291C40.2195 67.5678 39.977 69.5559 39.1514 70.8443C38.3042 72.1804 38.4986 74.316 38.4961 74.3161C38.4977 74.3172 40.5404 72.81 40.8383 71.6476C41.2126 70.2504 40.2692 67.5079 40.2331 67.4233Z" fill="#BC7546"/>
<path d="M39.6653 68.5655C39.0512 69.4097 38.441 70.0794 37.8547 71.0889C37.5141 71.6779 37.64 73.2289 38.0992 73.8903C38.2353 74.1889 38.4962 74.3163 38.4962 74.3163C38.4986 74.3161 38.3042 72.1805 39.1515 70.8444C39.9771 69.556 40.2195 67.5678 40.2316 67.4292C40.2041 67.5045 39.985 68.1249 39.6653 68.5655Z" fill="#F9C8A9"/>
<path d="M36.6577 71.8282C36.6572 71.8302 36.6553 71.8309 36.655 71.833C36.6138 71.951 35.9651 73.6371 34.9764 74.6497C33.959 75.7008 33.6557 77.5756 33.6533 77.5753C33.6542 77.576 35.725 76.5206 36.2375 75.5529C36.8665 74.3903 36.6704 71.9057 36.6577 71.8282Z" fill="#BC7546"/>
<path d="M35.9186 72.7437C35.2071 73.3966 34.5381 73.9002 33.8162 74.7016C33.3961 75.1692 33.1632 76.5282 33.4087 77.1577C33.459 77.4331 33.6531 77.5753 33.6531 77.5753C33.6554 77.5756 33.9588 75.7006 34.9761 74.6497C35.9647 73.6371 36.6136 71.9511 36.6547 71.833C36.6144 71.8945 36.2893 72.4028 35.9186 72.7437Z" fill="#F9C8A9"/>
<path d="M32.6862 78.1068C32.6862 79.1536 30.6885 80.0021 28.224 80.0021C25.7596 80.0021 23.7617 79.1536 23.7617 78.1068C23.7617 77.0601 25.7596 76.2115 28.224 76.2115C30.6884 76.2116 32.6862 77.0601 32.6862 78.1068Z" fill="#BC7546"/>
<path d="M28.2245 79.6707C25.7919 79.6707 24.0967 78.8466 24.0967 78.1068C24.0967 77.3672 25.7919 76.543 28.2245 76.543C30.6572 76.543 32.3524 77.3672 32.3524 78.1068C32.3524 78.8466 30.6571 79.6707 28.2245 79.6707Z" fill="#F9C8A9"/>
<path d="M27.7043 68.5296C24.84 68.5296 22.0008 68.0156 19.9154 67.1188L19.1992 66.8108V60.3095H21.2683L21.5518 60.4796C23.1701 61.4487 25.4947 62.1003 27.3361 62.1003C30.219 62.1003 30.219 60.7392 30.219 60.2919C30.219 59.6979 30.219 59.0834 27.2757 59.0834C26.9522 59.0834 26.6234 59.0888 26.2947 59.0947C25.9525 59.1001 25.6104 59.1059 25.2741 59.1059H24.0845V53.0482L26.6095 53.0539C27.5052 53.0539 29.3687 53.0539 29.7874 52.4598C29.849 52.351 29.975 51.911 29.8322 51.6307C29.691 51.354 29.2088 51.1505 28.5095 51.0723C28.1715 51.0342 27.8281 51.015 27.489 51.015C25.6993 51.015 23.8921 51.5428 22.1188 52.5842L21.8383 52.7488H19.8029V46.2801L20.5487 45.9828C22.7287 45.1136 25.6227 44.5946 28.2889 44.5946C32.4804 44.5946 35.5051 45.8363 36.8074 48.0911C37.724 49.6834 37.7984 51.6811 37.0067 53.4359C36.5983 54.3399 35.9959 55.1104 35.2501 55.7062C36.9044 56.6854 37.9628 58.3263 38.1144 60.3188C38.4177 64.3005 35.1961 67.0969 32.0757 68.0093C30.9113 68.3495 29.3998 68.5296 27.7043 68.5296Z" fill="#BC7546"/>
<path d="M31.7383 66.8787C29.0387 67.668 23.8358 67.5194 20.3887 66.0372V61.4884H20.9364C24.5753 63.6685 31.408 64.4765 31.408 60.2918C31.408 57.5082 28.1245 57.9269 25.2739 57.9269V54.2269C27.5526 54.2269 29.8852 54.3788 30.7623 53.1349C31.1074 52.6456 31.8389 50.2581 28.643 49.9008C26.1017 49.6144 23.6835 50.2952 21.5116 51.5699H20.9923V47.0764C25.333 45.346 33.5678 44.8554 35.7738 48.6763C37.2757 51.2838 35.8142 55.047 32.4047 55.7708V55.9658C38.5879 56.8075 38.5344 64.8906 31.7383 66.8787Z" fill="#F9C8A9"/>
</svg>
